<?xml version="1.0" encoding="UTF-8" standalone="no"?>
<svg
   xmlns="http://www.w3.org/2000/svg"
   id="basile"
   version="1.1"
   viewBox="0 0 12.7 12.7"
   height="48"
   width="48">
  <g
     transform="translate(0,-284.29998)"
     id="layer">
    <path
       id="text"
       d="m 3.1392176,296.16206 c -4.1464485,-2.40362 -4.1464485,-8.58877 0,-10.99239 1.1957837,-0.69317 1.7214621,-0.82672 3.2626782,-0.82888 1.045066,-0.001 1.8372268,0.11603 1.8372268,0.27254 0,0.15378 -0.7502024,0.27623 -1.7011366,0.27768 -1.3907938,0.002 -1.9618232,0.1537 -3.1300906,0.83092 -0.7859251,0.45559 -1.4289545,0.89266 -1.4289545,0.97127 0,0.0786 0.2449636,0.62831 0.5443635,1.22151 0.3676649,0.72845 0.5443638,1.62146 0.5443638,2.75116 0,1.12968 -0.1766989,2.0227 -0.5443638,2.75115 -0.2993999,0.59319 -0.5443635,1.14287 -0.5443635,1.2215 0,0.0786 0.6430294,0.51569 1.4289545,0.97128 1.1682674,0.67721 1.7392968,0.8288 3.1300906,0.83091 0.9509342,10e-4 1.7011366,0.12391 1.7011366,0.27769 0,0.1565 -0.7921608,0.27402 -1.8372268,0.27254 -1.5412161,-0.002 -2.0668945,-0.13572 -3.2626782,-0.82888 z m -0.6273218,-5.41809 c 0.00642,-0.80705 -0.1915481,-1.86521 -0.4523821,-2.41808 l -0.4637909,-0.98307 -0.4774369,0.90496 c -0.61763044,1.17068 -0.63539347,3.48855 -0.036463,4.75806 l 0.4637907,0.98306 0.477437,-0.90495 c 0.2727376,-0.51695 0.4823284,-1.52021 0.4888452,-2.33998 z m 3.5497729,-0.0781 V 285.7138 H 8.490421 c 2.215809,0 2.502177,0.0624 3.266182,0.71224 1.185432,1.00823 1.185432,2.51936 0,3.52759 l -0.837428,0.71224 0.837428,0.71225 c 0.666151,0.56658 0.83743,0.92733 0.83743,1.7638 0,0.83647 -0.171279,1.19722 -0.83743,1.76379 -0.764005,0.6498 -1.050373,0.71225 -3.266182,0.71225 H 6.0616687 Z m 5.2708393,3.83165 c 0.475553,-0.37809 0.717161,-0.83479 0.717161,-1.3556 0,-1.32874 -1.06621,-1.9258 -3.4389794,-1.9258 h -2.004658 v 1.9258 1.9258 h 2.004658 c 1.6159224,0 2.1437264,-0.11052 2.7218184,-0.5702 z m -4.4542939,-1.3556 v -1.37558 h 1.0465423 c 1.0865286,0 1.9474577,0.62925 1.9474577,1.42337 0,0.70107 -0.9415148,1.32779 -1.9947499,1.32779 H 6.8782141 Z m 2.1774539,0.41267 c 0.4539098,-0.55282 -0.091783,-1.23802 -0.9859631,-1.23802 -0.5375765,0 -0.6471278,0.13972 -0.6471278,0.82535 0,0.68563 0.1095513,0.82535 0.6471278,0.82535 0.3559203,0 0.7996035,-0.18571 0.9859631,-0.41268 z m 2.27684,-4.00915 c 0.475553,-0.37809 0.717161,-0.83479 0.717161,-1.3556 0,-1.32875 -1.06621,-1.92581 -3.4389794,-1.92581 h -2.004658 v 1.92581 1.9258 h 2.004658 c 1.6159224,0 2.1437264,-0.11052 2.7218184,-0.5702 z m -4.4542939,-1.3556 v -1.37558 h 1.0465423 c 1.0865286,0 1.9474577,0.62925 1.9474577,1.42338 0,0.70107 -0.9415148,1.32778 -1.9947499,1.32778 H 6.8782141 Z m 2.1774539,0.41266 c 0.4539098,-0.55281 -0.091783,-1.23801 -0.9859631,-1.23801 -0.5375765,0 -0.6471278,0.13972 -0.6471278,0.82535 0,0.68563 0.1095513,0.82535 0.6471278,0.82535 0.3559203,0 0.7996035,-0.1857 0.9859631,-0.41269 z m -4.7755642,2.49555 c -0.4802811,-0.35981 -0.4911001,-0.44055 -0.1113259,-0.83072 0.3695455,-0.37968 0.4852928,-0.38375 0.9526367,-0.0336 0.480281,0.35981 0.4911001,0.44055 0.1113248,0.83072 -0.3695445,0.37968 -0.4852918,0.38376 -0.9526356,0.0336 z"
       style="display:inline;fill:#ffffff;stroke-width:0.9;fill-opacity:1" />
  </g>
</svg>
