<?xml version="1.0" encoding="UTF-8" standalone="no"?>
<svg
   xmlns:dc="http://purl.org/dc/elements/1.1/"
   xmlns:cc="http://creativecommons.org/ns#"
   xmlns:rdf="http://www.w3.org/1999/02/22-rdf-syntax-ns#"
   xmlns:svg="http://www.w3.org/2000/svg"
   xmlns="http://www.w3.org/2000/svg"
   xmlns:sodipodi="http://sodipodi.sourceforge.net/DTD/sodipodi-0.dtd"
   xmlns:inkscape="http://www.inkscape.org/namespaces/inkscape"
   x="0"
   y="0"
   version="1.0"
   _SVGFile__filename="oldscale/actions/knotes_delete.svg"
   viewBox="0 0 60 60"
   id="svg1"
   sodipodi:docname="close.svg"
   inkscape:version="0.92.4 (5da689c313, 2019-01-14)">
  <sodipodi:namedview
     pagecolor="#ffffff"
     bordercolor="#666666"
     borderopacity="1"
     objecttolerance="10"
     gridtolerance="10"
     guidetolerance="10"
     inkscape:pageopacity="0"
     inkscape:pageshadow="2"
     inkscape:window-width="774"
     inkscape:window-height="480"
     id="namedview9"
     showgrid="false"
     inkscape:zoom="3.9333333"
     inkscape:cx="30"
     inkscape:cy="30"
     inkscape:window-x="2223"
     inkscape:window-y="263"
     inkscape:window-maximized="0"
     inkscape:current-layer="svg1" />
  <defs
     id="defs11" />
  <path
     d="m6.6826 4.6877c-1.1054 0-1.9953 0.8963-1.9953 2.0095v46.606c0 1.113 0.8899 2.009 1.9953 2.009h46.634c1.106 0 1.996-0.896 1.996-2.009v-46.606c0-1.113-0.89-2.0093-1.996-2.0093h-46.634z"
     style="stroke-linejoin:round;fill-rule:evenodd;stroke:#000000;stroke-width:3.125;fill:none;fill-opacity:1"
     id="rect812" />
  <g
     transform="matrix(0.97073,0,0,0.97073,0.87807,0.87807)"
     id="g2083">
    <path
       d="m 12.983,11.652 c -0.458,-0.019 -0.801,0.106 -1.032,0.341 -1.626,1.664 3.485,9.397 11.523,18.021 -8.038,8.625 -13.149,16.358 -11.523,18.021 1.632,1.669 9.369,-3.458 18.032,-11.524 8.663,8.066 16.436,13.193 18.067,11.524 C 49.677,46.372 44.53,38.639 36.491,30.014 44.53,21.39 49.677,13.657 48.05,11.993 46.419,10.325 38.646,15.452 29.983,23.517 22.543,16.59 15.769,11.762 12.983,11.652 Z"
       style="fill:none;stroke:#ffffff;stroke-width:8.36999989;stroke-linecap:round;stroke-linejoin:round"
       id="path1322"
       inkscape:connector-curvature="0" />
    <path
       d="m 12.983,11.652 c -0.458,-0.019 -0.801,0.106 -1.032,0.341 -1.626,1.664 3.485,9.397 11.523,18.021 -8.038,8.625 -13.149,16.358 -11.523,18.021 1.632,1.669 9.369,-3.458 18.032,-11.524 8.663,8.066 16.436,13.193 18.067,11.524 C 49.677,46.372 44.53,38.639 36.491,30.014 44.53,21.39 49.677,13.657 48.05,11.993 46.419,10.325 38.646,15.452 29.983,23.517 22.543,16.59 15.769,11.762 12.983,11.652 Z"
       style="fill:#e71c02;fill-rule:evenodd;stroke:#e71c02;stroke-width:3.2191999;stroke-linecap:round;stroke-linejoin:round"
       id="path1602"
       inkscape:connector-curvature="0" />
  </g>
  <metadata
     id="metadata8">
    <rdf:RDF>
      <cc:Work>
        <dc:format>image/svg+xml</dc:format>
        <dc:type
           rdf:resource="http://purl.org/dc/dcmitype/StillImage" />
        <cc:license
           rdf:resource="http://creativecommons.org/publicdomain/zero/1.0/" />
        <dc:publisher>
          <cc:Agent
             rdf:about="http://openclipart.org/">
            <dc:title>Openclipart</dc:title>
          </cc:Agent>
        </dc:publisher>
        <dc:title />
      </cc:Work>
      <cc:License
         rdf:about="http://creativecommons.org/publicdomain/zero/1.0/">
        <cc:permits
           rdf:resource="http://creativecommons.org/ns#Reproduction" />
        <cc:permits
           rdf:resource="http://creativecommons.org/ns#Distribution" />
        <cc:permits
           rdf:resource="http://creativecommons.org/ns#DerivativeWorks" />
      </cc:License>
    </rdf:RDF>
  </metadata>
</svg>
