<?xml version="1.0" encoding="UTF-8" standalone="no"?>
<svg
   xmlns:dc="http://purl.org/dc/elements/1.1/"
   xmlns:cc="http://creativecommons.org/ns#"
   xmlns:rdf="http://www.w3.org/1999/02/22-rdf-syntax-ns#"
   xmlns:svg="http://www.w3.org/2000/svg"
   xmlns="http://www.w3.org/2000/svg"
   xmlns:xlink="http://www.w3.org/1999/xlink"
   height="36"
   width="36"
   version="1.1"
   viewBox="0 0 36 36"
   id="svg2">
  <defs
     id="defs4">
    <clipPath
       clipPathUnits="userSpaceOnUse"
       id="clipPathFlag">
      <rect
         style="fill-opacity:0.67000002"
         x="0.5"
         y="0.5"
         width="511"
         height="511"
         ry="57"
         id="rect3918" />
    </clipPath>
    <linearGradient
       id="linearGradient3852-0">
      <stop
         offset="0"
         stop-color="#dbe3db"
         id="stop3854-6" />
      <stop
         offset="1"
         stop-opacity="0"
         stop-color="#dbe3db"
         id="stop3856-1" />
    </linearGradient>
    <linearGradient
       x1="342.19"
       y1="705.76001"
       gradientTransform="matrix(1.1571,0,0,1.3167,-91.204,-253.99)"
       x2="358.07999"
       gradientUnits="userSpaceOnUse"
       xlink:href="#linearGradient3852-0"
       y2="523.40997"
       id="linearGradient5122" />
    <linearGradient
       x1="405.26001"
       y1="118.06"
       gradientTransform="matrix(0.95303,0,0,0.86647,11.575,-4.5016)"
       x2="405.75"
       gradientUnits="userSpaceOnUse"
       xlink:href="#linearGradient3852-0"
       y2="360.92001"
       id="linearGradient5125" />
    <filter
       id="filter5740">
      <feGaussianBlur
         stdDeviation="5.12"
         id="feGaussianBlur5742" />
    </filter>
    <clipPath
       clipPathUnits="userSpaceOnUse"
       id="clipPath5796">
      <rect
         style="fill:none;stroke:#00fa00;stroke-width:20"
         x="0"
         y="0"
         width="512"
         height="512"
         ry="57"
         id="rect5798" />
    </clipPath>
    <filter
       id="filter5912">
      <feGaussianBlur
         stdDeviation="17.92"
         id="feGaussianBlur5914" />
    </filter>
  </defs>
  <g
     transform="matrix(0.05862655,0,0,0.05842551,-4.5276071,-5.5842846)"
     id="template-button">&gt;
  <g
   transform="translate(128,128)"
   clip-path="url(#clipPathFlag)"
   id="01">
  <rect
     style="fill:#0000ff"
     x="0"
     y="0"
     width="512"
     height="512"
     ry="57"
     id="mask" />
  <g
     id="flag">
    <rect
       style="fill:#ff3300;fill-rule:evenodd;stroke-width:1.00000003pt"
       x="0"
       y="0"
       width="512"
       height="512"
       id="rect149" />
    <path
       style="fill:#ffff00;fill-rule:evenodd;stroke-width:1.00000003pt"
       transform="matrix(6.2061,0,0,6.2061,-1415.4,-3060.2)"
       d="m 266.19,534.45 -10.41,-7.43 -10.36,7.5 3.85,-12.19 -10.33,-7.53 12.78,-0.11 3.97,-12.16 4.05,12.13 12.79,0.02 -10.28,7.6 z"
       id="path139" />
    <path
       style="fill:#ffff00;fill-rule:evenodd;stroke-width:1.00000003pt"
       transform="matrix(1.63,0.55554,-0.55554,1.63,253.84,-925.67)"
       d="m 266.19,534.45 -10.41,-7.43 -10.36,7.5 3.85,-12.19 -10.33,-7.53 12.78,-0.11 3.97,-12.16 4.05,12.13 12.79,0.02 -10.28,7.6 z"
       id="path138" />
    <path
       style="fill:#ffff00;fill-rule:evenodd;stroke-width:1.00000003pt"
       transform="matrix(1.6793,0.38142,-0.38142,1.6793,95.09,-579.25)"
       d="m 266.19,534.45 -10.41,-7.43 -10.36,7.5 3.85,-12.19 -10.33,-7.53 12.78,-0.11 3.97,-12.16 4.05,12.13 12.79,0.02 -10.28,7.6 z"
       id="path137" />
    <path
       style="fill:#ffff00;fill-rule:evenodd;stroke-width:1.00000003pt"
       transform="matrix(1.4007,1.0019,-1.0019,1.4007,603.91,-806.68)"
       d="m 266.19,534.45 -10.41,-7.43 -10.36,7.5 3.85,-12.19 -10.33,-7.53 12.78,-0.11 3.97,-12.16 4.05,12.13 12.79,0.02 -10.28,7.6 z"
       id="path136" />
    <path
       style="fill:#ffff00;fill-rule:evenodd;stroke-width:1.00000003pt"
       transform="matrix(1.7221,-0.012142,0.012142,1.7221,-26.659,-602.32)"
       d="m 266.19,534.45 -10.41,-7.43 -10.36,7.5 3.85,-12.19 -10.33,-7.53 12.78,-0.11 3.97,-12.16 4.05,12.13 12.79,0.02 -10.28,7.6 z"
       id="path135" />
  </g>
</g>
<g
   style="display:inline"
   transform="translate(0,38)"
   id="02">
  <rect
     style="fill:none;stroke:#ffffff;stroke-width:20;stroke-opacity:1;filter:url(#filter5740)"
     x="0"
     y="0"
     width="512"
     height="512"
     ry="57"
     clip-path="url(#clipPath5796)"
     transform="translate(128,90)"
     id="rect5734" />
</g>
</g>
  <metadata
     id="metadata32">
    <rdf:RDF>
      <cc:Work>
        <dc:format>image/svg+xml</dc:format>
        <dc:type
           rdf:resource="http://purl.org/dc/dcmitype/StillImage" />
        <cc:license
           rdf:resource="http://creativecommons.org/publicdomain/zero/1.0/" />
        <dc:publisher>
          <cc:Agent
             rdf:about="http://openclipart.org/">
            <dc:title>Openclipart</dc:title>
          </cc:Agent>
        </dc:publisher>
        <dc:title></dc:title>
      </cc:Work>
      <cc:License
         rdf:about="http://creativecommons.org/publicdomain/zero/1.0/">
        <cc:permits
           rdf:resource="http://creativecommons.org/ns#Reproduction" />
        <cc:permits
           rdf:resource="http://creativecommons.org/ns#Distribution" />
        <cc:permits
           rdf:resource="http://creativecommons.org/ns#DerivativeWorks" />
      </cc:License>
    </rdf:RDF>
  </metadata>
</svg>
