<?xml version="1.0" encoding="UTF-8" standalone="no"?>
<svg
   xmlns:dc="http://purl.org/dc/elements/1.1/"
   xmlns:cc="http://creativecommons.org/ns#"
   xmlns:rdf="http://www.w3.org/1999/02/22-rdf-syntax-ns#"
   xmlns:svg="http://www.w3.org/2000/svg"
   xmlns="http://www.w3.org/2000/svg"
   height="36"
   width="36"
   version="1.1"
   viewBox="0 0 36 36"
   id="svg2">
  <defs
     id="defs4">
    <clipPath
       clipPathUnits="userSpaceOnUse"
       id="clipPathFlag">
      <rect
         x="0.5"
         y="0.5"
         width="511"
         height="511"
         ry="57"
         style="fill:#000000;fill-opacity:0.67000002"
         id="rect3918" />
    </clipPath>
    <filter
       id="filter5740">
      <feGaussianBlur
         stdDeviation="5.12"
         id="feGaussianBlur5742" />
    </filter>
    <clipPath
       clipPathUnits="userSpaceOnUse"
       id="clipPath5796">
      <rect
         x="0"
         y="0"
         width="512"
         height="512"
         ry="57"
         style="fill:none;stroke:#00fa00;stroke-width:20"
         id="rect5798" />
    </clipPath>
  </defs>
  <g
     transform="matrix(0.05837235,0,0,0.05850545,-4.477285,-5.509671)"
     id="template-button">&gt;
  <g
   transform="translate(128,128)"
   clip-path="url(#clipPathFlag)"
   id="01">
  <rect
     x="0"
     y="0"
     width="512"
     height="512"
     ry="57"
     style="fill:#0000ff"
     id="mask" />
  <g
     transform="matrix(1.024,0,0,1.024,-256,-2.4e-6)"
     clip-path="url(#clipPath3224)"
     id="flag">
    <g
       transform="scale(16.667)"
       id="g578">
      <rect
         x="0"
         y="0"
         width="60"
         height="30"
         style="fill:#000066;stroke-width:1.00000003pt"
         id="rect124" />
      <g
         id="g584">
        <path
           d="m 0,0 v 3.3541 l 53.292,26.646 H 60 v -3.354 L 6.708,1e-4 H 0 Z M 60,0 V 3.354 L 6.708,30 H 0 V 26.646 L 53.292,0 Z"
           style="fill:#ffffff;stroke-width:1.00000003pt"
           id="path146" />
        <path
           d="M 25,0 V 30 H 35 V 0 Z M 0,10 V 20 H 60 V 10 Z"
           style="fill:#ffffff;stroke-width:1.00000003pt"
           id="path136" />
        <path
           d="m 0,12 v 6 H 60 V 12 Z M 27,0 v 30 h 6 V 0 Z"
           style="fill:#cc0000;stroke-width:1.00000003pt"
           id="path141" />
        <path
           d="M 0,30 20,20 h 4.472 l -20,10 z M 0,0 20,10 H 15.528 L 0,2.2361 Z m 35.528,10 20,-10 H 60 L 40,10 Z M 60,30 40,20 h 4.472 L 60,27.764 Z"
           style="fill:#cc0000;stroke-width:1.00000003pt"
           id="path150" />
      </g>
    </g>
  </g>
</g>
<g
   transform="translate(0,38)"
   id="02">
  <rect
     x="0"
     y="0"
     width="512"
     height="512"
     ry="57"
     clip-path="url(#clipPath5796)"
     transform="translate(128,90)"
     style="fill:none;stroke:#ffffff;stroke-width:20;filter:url(#filter5740);stroke-opacity:1"
     id="rect5734" />
</g>
</g>
  <metadata
     id="metadata34">
    <rdf:RDF>
      <cc:Work>
        <dc:format>image/svg+xml</dc:format>
        <dc:type
           rdf:resource="http://purl.org/dc/dcmitype/StillImage" />
        <cc:license
           rdf:resource="http://creativecommons.org/publicdomain/zero/1.0/" />
        <dc:publisher>
          <cc:Agent
             rdf:about="http://openclipart.org/">
            <dc:title>Openclipart</dc:title>
          </cc:Agent>
        </dc:publisher>
        <dc:title></dc:title>
        <dc:date>2011-10-13T12:30:12</dc:date>
        <dc:description>country flag buttons (with ISO-3166-1 naming convention)</dc:description>
        <dc:source>https://openclipart.org/detail/163567/gb-by-koppi-163567</dc:source>
        <dc:creator>
          <cc:Agent>
            <dc:title>koppi</dc:title>
          </cc:Agent>
        </dc:creator>
        <dc:subject>
          <rdf:Bag>
            <rdf:li>ISO3166-1</rdf:li>
            <rdf:li>button</rdf:li>
            <rdf:li>country</rdf:li>
            <rdf:li>flag</rdf:li>
            <rdf:li>flags</rdf:li>
            <rdf:li>squared</rdf:li>
          </rdf:Bag>
        </dc:subject>
      </cc:Work>
      <cc:License
         rdf:about="http://creativecommons.org/publicdomain/zero/1.0/">
        <cc:permits
           rdf:resource="http://creativecommons.org/ns#Reproduction" />
        <cc:permits
           rdf:resource="http://creativecommons.org/ns#Distribution" />
        <cc:permits
           rdf:resource="http://creativecommons.org/ns#DerivativeWorks" />
      </cc:License>
    </rdf:RDF>
  </metadata>
</svg>
