<?xml version="1.0" encoding="UTF-8" standalone="no"?>
<svg
   xmlns:dc="http://purl.org/dc/elements/1.1/"
   xmlns:cc="http://creativecommons.org/ns#"
   xmlns:rdf="http://www.w3.org/1999/02/22-rdf-syntax-ns#"
   xmlns:svg="http://www.w3.org/2000/svg"
   xmlns="http://www.w3.org/2000/svg"
   xmlns:xlink="http://www.w3.org/1999/xlink"
   id="svg8"
   version="1.1"
   viewBox="0 0 169.33333 476.25001"
   height="1800"
   width="640">
  <defs
     id="defs2">
    <linearGradient
       id="linearGradient844">
      <stop
         id="stop840"
         offset="0"
         style="stop-color:#88caef;stop-opacity:1;" />
      <stop
         id="stop842"
         offset="1"
         style="stop-color:#88caef;stop-opacity:0;" />
    </linearGradient>
    <linearGradient
       gradientTransform="matrix(0.98753895,0,0,1.0974106,0.53487005,-44.096014)"
       gradientUnits="userSpaceOnUse"
       y2="20.656378"
       x2="185.1478"
       y1="460.92636"
       x1="13.877863"
       id="linearGradient848"
       xlink:href="#linearGradient844" />
    <linearGradient
       x1="640.71002"
       y1="690.16998"
       x2="669.22998"
       gradientUnits="userSpaceOnUse"
       xlink:href="#linearGradient3192"
       y2="535.90002"
       id="linearGradient3198"
       gradientTransform="matrix(0.29320933,0,0,0.5384385,-72.099173,75.32654)" />
    <linearGradient
       id="linearGradient3192">
      <stop
         offset="0"
         stop-color="#633d01"
         id="stop3194" />
      <stop
         offset="1"
         stop-color="#8f5902"
         id="stop3196" />
    </linearGradient>
    <linearGradient
       x1="656.59998"
       x2="770.84998"
       gradientTransform="matrix(0.29320933,0,0,0.5384385,-74.764855,76.414356)"
       y1="579.04999"
       gradientUnits="userSpaceOnUse"
       xlink:href="#linearGradient3184"
       y2="380.57999"
       id="linearGradient3190" />
    <linearGradient
       id="linearGradient3184">
      <stop
         offset="0"
         stop-color="#316004"
         id="stop3186" />
      <stop
         offset="1"
         stop-color="#4e9a06"
         id="stop3188" />
    </linearGradient>
    <linearGradient
       x1="326.70999"
       y1="628.71997"
       gradientTransform="matrix(0.32906734,0,0,0.67246031,-69.895887,-9.0029167)"
       x2="326.70999"
       gradientUnits="userSpaceOnUse"
       xlink:href="#linearGradient3192"
       y2="517.76001"
       id="linearGradient7194" />
    <linearGradient
       x1="330.26001"
       y1="565.81"
       gradientTransform="matrix(0.63621379,0,0,0.9740611,-183.07263,-184.82359)"
       x2="351.03"
       gradientUnits="userSpaceOnUse"
       xlink:href="#linearGradient3184"
       y2="509.57999"
       id="linearGradient7191" />
    <linearGradient
       x1="446.92999"
       x2="446.92999"
       gradientTransform="matrix(-0.37715811,0,0,0.60982428,208.83127,-21.540167)"
       y1="787.98999"
       gradientUnits="userSpaceOnUse"
       y2="741.10999"
       id="linearGradient6538-4">
      <stop
         offset="0"
         stop-color="#316004"
         id="stop3186-78-9" />
      <stop
         offset="1"
         stop-color="#4e9a06"
         id="stop3188-81-2" />
    </linearGradient>
    <linearGradient
       x1="446.92999"
       x2="446.92999"
       gradientTransform="matrix(0.30616591,0,0,0.53899268,-113.20335,26.304543)"
       y1="787.98999"
       gradientUnits="userSpaceOnUse"
       y2="741.10999"
       id="linearGradient6538">
      <stop
         offset="0"
         stop-color="#316004"
         id="stop3186-78-3" />
      <stop
         offset="1"
         stop-color="#4e9a06"
         id="stop3188-81-1" />
    </linearGradient>
    <linearGradient
       gradientTransform="matrix(0.34747596,0,0,0.3875688,-69.98578,161.44424)"
       x1="131.83"
       x2="564.67999"
       y1="855.38"
       gradientUnits="userSpaceOnUse"
       y2="495.25"
       id="linearGradient2961">
      <stop
         offset="0"
         stop-color="#8ae234"
         id="stop2957" />
      <stop
         offset="1"
         stop-color="#4e9a06"
         id="stop2959" />
    </linearGradient>
  </defs>
  <metadata
     id="metadata5">
    <rdf:RDF>
      <cc:Work
         rdf:about="">
        <dc:format>image/svg+xml</dc:format>
        <dc:type
           rdf:resource="http://purl.org/dc/dcmitype/StillImage" />
        <dc:title></dc:title>
      </cc:Work>
    </rdf:RDF>
  </metadata>
  <rect
     y="0.75043881"
     x="0.53486282"
     height="476.03442"
     width="169.55383"
     id="rect829"
     style="display:inline;opacity:1;fill:url(#linearGradient848);fill-opacity:1;fill-rule:evenodd;stroke:#2c2c2c;stroke-width:0;stroke-linecap:round;stroke-linejoin:round;stroke-miterlimit:4;stroke-dasharray:none;stroke-opacity:0.39215686;paint-order:normal" />
  <path
     style="fill:url(#linearGradient2961);stroke-width:0.36697525"
     d="m 45.494362,353.38769 c -58.445455,0 -105.827265,22.08638 -105.827265,49.32975 0,8.78309 4.93068,17.03094 13.562335,24.17461 -5.76185,5.94414 -9.001711,12.62621 -9.001711,19.68112 0,24.86565 40.150831,45.02 89.680055,45.02 11.571991,0 22.637367,-1.10903 32.79305,-3.11264 11.510486,2.86584 24.445275,4.48107 38.114624,4.48107 48.07678,0 87.04272,-19.89623 87.04272,-44.43864 v -0.0243 c -0.003,-2.156 -0.30687,-4.27256 -0.8904,-6.34644 10.77765,-9.05323 17.21083,-20.50742 17.21083,-32.96737 v -0.0363 c -0.0234,-29.28701 -35.60586,-53.01165 -79.49555,-53.01165 -10.63207,0 -20.77594,1.39741 -30.045876,3.92414 -15.619054,-4.23614 -33.767722,-6.67395 -53.142982,-6.67395 z"
     id="path2858" />
  <g
     style="stroke:#ced4d6;stroke-opacity:1"
     transform="translate(-24.503005,63.810848)"
     id="g1018">
    <path
       id="rect3200-3-4-0"
       d="m 41.453704,130.29874 -50.5013078,22.07744 0.572077,2.57404 49.5661868,-20.02009 0.362933,-4.63129 z"
       style="fill:#ced4d6;stroke:#ced4d6;stroke-width:0.4755162;stroke-opacity:1" />
    <path
       id="rect3200"
       d="M -18.152247,125.21476 36.9889,80.80315 63.655671,307.9755 22.979901,296.23079 -18.151802,125.21476 Z"
       style="fill:#f1f4f5;stroke:#ced4d6;stroke-width:0.4755162;stroke-opacity:1" />
    <path
       id="rect3200-8"
       d="M 91.90133,112.70693 36.961516,80.80315 63.485114,308.04625 103.20338,296.48852 Z"
       style="fill:#d6dfe2;stroke:#ced4d6;stroke-width:0.4755162;stroke-opacity:1" />
    <path
       id="rect3200-1"
       d="m 34.245625,87.93387 -12.052846,9.7283 27.754473,202.1921 9.507863,2.74793 L 34.245173,87.93261 Z M 19.80217,99.57296 9.5112992,107.88018 41.068913,297.28144 48.521294,299.44502 19.801718,99.57256 Z m -12.6676088,10.21801 -9.563799,7.72251 35.7245208,177.52515 6.361995,1.84772 L 7.1345612,109.78956 Z m -11.928015,9.63228 -9.2143482,7.439 39.890975,166.02807 5.998236,1.73719 -36.6753078,-175.20552 z"
       style="fill:#e7ecee;stroke:#ced4d6;stroke-width:0.4755162;stroke-opacity:1" />
    <path
       id="rect3200-8-0"
       d="m 41.37317,87.87323 25.127613,215.12442 7.257298,-2.11243 -21.49002,-206.67975 z m 13.297139,7.7225 20.511936,204.88064 7.732025,-2.25839 L 65.213082,101.72644 54.670754,95.59886 Z m 12.961576,7.53299 16.708788,194.66213 7.315465,-2.13769 -14.666724,-187.0968 -9.355742,-5.43269 z m 11.771854,6.83761 13.677905,185.27747 6.317699,-1.84963 L 88.495495,115.2373 Z"
       style="fill:#ced4d6;stroke:#ced4d6;stroke-width:0.4755162;stroke-opacity:1" />
  </g>
  <g
     transform="translate(-41.005842,46.626996)"
     id="g1024">
    <path
       id="rect3200-2"
       d="M 195.21425,160.14106 166.00307,120.8748 151.8762,321.7178 173.42519,311.33676 195.21368,160.14313 Z"
       style="fill:#d6dfe2;stroke-width:0.76362711" />
    <path
       id="rect3200-8-4"
       d="m 136.91249,149.07912 29.09453,-28.20845 -14.11054,200.843 -20.96857,-10.15133 z"
       style="fill:#f1f4f5;stroke-width:0.76362711" />
    <path
       id="rect3200-8-4-8"
       d="m 163.22887,128.24874 -6.37454,6.20876 -11.18248,179.99192 4.31442,2.10187 13.24271,-188.30131 z m -7.11444,6.92018 -5.56476,5.40038 -9.43895,171.68253 3.97985,1.94024 11.02358,-179.01922 z m -6.28663,6.11169 -5.40629,5.23864 -7.50158,163.69393 3.61002,1.74621 9.29808,-170.67878 z m -6.14574,5.91778 -4.5786,4.46254 -5.77608,156.80221 3.01134,1.45513 7.34322,-162.72123 z"
       style="fill:#e7ecee;stroke-width:0.76362711" />
    <path
       id="rect3200-2-1"
       d="m 167.73702,128.38326 -13.22524,187.78391 4.34969,-2.06958 15.16207,-177.27041 -6.28663,-8.43998 z m 6.86818,9.21608 -15.12712,176.17353 4.08552,-1.94024 17.32823,-165.79455 -6.28663,-8.43998 z m 6.83268,9.18379 -17.25779,164.72872 3.48678,-1.64925 19.08923,-155.93299 z m 5.84652,7.85801 -18.98386,154.89818 3.2931,-1.55218 21.04408,-146.16454 -5.35344,-7.17887 z"
       style="fill:#ced4d6;stroke-width:0.76362711" />
  </g>
  <g
     transform="translate(-106.35911,32.265296)"
     id="g1072">
    <path
       id="rect3200-5-7"
       d="m 236.56157,272.87796 40.99268,-36.43403 -5.43278,94.26758 -32.59624,-23.10589 -2.96332,-34.72766 z"
       style="fill:#e7ecee;stroke-width:0.76362711" />
    <path
       id="rect3200-5-6-8"
       d="m 300.26748,256.29023 -22.72506,-19.8494 -5.43048,94.27379 22.2286,-13.5113 5.92654,-60.91309 z"
       style="fill:#ced4d6;stroke-width:0.76362711" />
    <path
       id="rect3200-5"
       d="m 233.31006,287.07532 47.24719,-43.63205 -6.26184,112.89593 -37.56986,-27.6714 -3.41543,-41.58834 z"
       style="fill:#f1f4f5;stroke-width:0.76362711" />
    <path
       id="rect3200-5-0"
       d="m 277.89011,250.54713 -7.44917,6.8555 -4.84278,88.05469 6.76224,4.97994 5.52954,-99.88962 z m -8.17104,7.53453 -7.07893,6.53213 -3.59244,76.02522 5.98739,4.39787 4.68426,-86.9547 z m -7.78333,7.17888 -7.16741,6.62909 -1.65534,64.38379 5.35344,3.94516 3.46914,-74.95835 z m -7.87181,7.27584 -6.42751,5.95006 -0.75726,53.19457 5.65267,4.17146 1.5321,-63.31692 z m -7.09697,6.56452 -5.81102,5.36799 1.30314,43.94662 3.83898,2.8134 0.66918,-52.1277 z m -6.42751,5.91777 -4.75469,4.39787 2.9937,36.28192 3.06413,2.26361 -1.30314,-42.94392 z"
       style="fill:#e7ecee;stroke-width:0.76362711" />
    <path
       id="rect3200-5-6"
       d="m 306.74232,267.21764 -26.1924,-23.77126 -6.25901,112.89593 25.62042,-16.18106 6.83099,-72.94775 z"
       style="fill:#d6dfe2;stroke-width:0.76362711" />
    <path
       id="rect3200-5-6-0"
       d="m 282.48279,249.77103 -5.58234,100.50429 3.43398,-2.16665 5.68817,-95.13682 -3.53958,-3.20144 z m 4.19118,3.8158 -5.72311,94.1341 3.68046,-2.32828 5.42388,-88.73352 -3.38112,-3.07209 z m 4.03266,3.65406 -5.4591,87.76288 3.46914,-2.19893 5.03646,-82.78346 -3.0465,-2.78101 z m 3.6981,3.36308 -5.07168,81.81282 2.87046,-1.81089 5.2351,-77.25766 -3.03174,-2.7422 z m 3.68046,3.33079 -5.26542,76.28392 2.51826,-1.58448 5.56476,-72.14474 z m 3.46914,3.16905 -5.59998,71.14204 1.97232,-1.26121 6.32213,-67.4561 -2.6943,-2.42535 z"
       style="fill:#ced4d6;stroke-width:0.76362711" />
  </g>
  <g
     transform="matrix(0.88915451,0,0,1.1063476,10.713877,64.512652)"
     id="g863">
    <path
       style="display:inline;fill:#ced4d6;fill-opacity:1;stroke:#ced4d6;stroke-width:0.94779897;stroke-opacity:1"
       d="m 62.954573,336.98263 c -4.925365,-2.12542 -9.544878,-4.57522 -10.265555,-5.44402 -0.841493,-1.01445 -1.037467,-3.64961 -0.547783,-7.36483 0.419375,-3.18186 1.018534,-14.34983 1.331477,-24.81775 0.313076,-10.46789 0.814165,-25.71298 1.113795,-33.87794 0.299697,-8.16496 0.824702,-24.0952 1.166844,-35.40053 0.342143,-11.30534 0.868218,-28.26336 1.169086,-37.68446 0.3007,-9.42112 0.775466,-24.83749 1.054692,-34.25859 0.279294,-9.42113 0.799649,-25.00878 1.156476,-34.63925 1.573442,-42.464521 1.89876,-53.213641 1.93552,-63.949391 0.0582,-17.03204 0.569691,-18.48611 10.128985,-28.80275 5.077922,-5.48021 8.922442,-8.84159 10.129992,-8.85695 1.29254,-0.0173 4.8296,3.35132 10.53193,10.02783 7.59886,8.89702 8.627758,10.58166 8.950508,14.65508 0.43078,5.43696 1.97779,27.20236 3.33028,46.85475 0.3027,4.39652 0.82584,11.933411 1.16283,16.748641 0.57655,8.23827 0.96344,13.81007 2.43176,35.01988 0.33348,4.81524 0.90564,12.86602 1.27177,17.89061 0.36609,5.02461 0.91578,12.90408 1.22153,17.50995 0.30572,4.60589 2.79287,41.23153 5.52693,81.39031 4.15607,61.04579 4.71168,73.18332 3.38909,74.03663 -0.87009,0.56136 -1.67677,1.02193 -1.79266,1.02353 -0.11574,0.002 -9.95814,0.85805 -21.871658,1.90324 -11.91348,1.04522 -22.0906,1.90038 -22.61577,1.90038 -0.52517,0 -4.984705,-1.73898 -9.910069,-3.86437 z m 33.710179,-1.55626 18.462768,-1.62594 -0.49604,-5.80266 c -0.27294,-3.19148 -1.28616,-18.64965 -2.25187,-34.3515 -2.59663,-42.21902 -10.03269,-156.64503 -12.31895,-189.56423 -0.625248,-9.002381 -1.748808,-25.617811 -2.496848,-36.923151 -0.74804,-11.30533 -1.42804,-20.60067 -1.5111,-20.65628 -0.0829,-0.0557 -4.26623,0.0751 -9.29588,0.29045 l -9.14487,0.39157 -0.19434,21.02602 c -0.1067,11.5643 -0.2813,23.25281 -0.38743,25.97447 -0.10637,2.72165 -0.62083,58.477531 -1.1434,123.901931 -0.80731,101.07403 -0.70472,118.95434 0.68245,118.95935 0.89795,0.002 9.94087,-0.72575 20.09538,-1.62003 z M 69.126823,246.8262 c 0.20069,-29.31014 0.549055,-54.4902 0.774329,-55.95571 0.225442,-1.46552 0.47433,-34.84148 0.553402,-74.16881 0.11339,-56.435591 2.477948,-70.315541 1.314619,-70.779401 -0.810653,-0.32323 -5.356446,-1.75137 -5.356446,-1.75137 -0.613108,0.41404 -0.96883,33.25758 -3.603621,110.537741 -4.603458,135.02297 -5.224125,154.64988 -5.240983,165.73181 l -0.01672,10.42618 5.014939,2.24249 5.014906,2.24249 0.589995,-17.61714 c 0.324448,-9.68943 0.754125,-41.59816 0.954715,-70.90828 z M 82.331912,40.225899 c 0,-2.17719 3.09535,-3.56292 5.30992,-2.37713 0.97345,0.52125 3.60095,5.23301 3.60095,5.23301 -2.03028,-0.0978 1.6379,0.12711 3.7223,-0.38903 1.26073,-0.31213 -1.19842,-3.38114 -5.75914,-8.66883 -3.29512,-3.82044 -6.38143,-6.66389 -6.85844,-6.31882 -1.26832,0.9175 -4.98129,15.76925 -4.98129,15.76925 0,0 4.9657,1.36993 4.9657,-3.24845 z m -4.40136,-11.92588 c 0.36566,-2.14354 -7.417998,8.33141 -9.168382,9.79815 -4.240377,3.9486 -1.423059,4.32515 3.041455,4.94662 0.811227,-0.17178 5.918147,-13.52091 6.126927,-14.74477 z"
       id="path990" />
    <path
       style="opacity:1;fill:#f1f4f5;fill-opacity:1;fill-rule:evenodd;stroke:#000000;stroke-width:0;stroke-linecap:round;stroke-linejoin:round;stroke-miterlimit:4;stroke-dasharray:none;stroke-opacity:0.39215686;paint-order:normal"
       d="m 74.840499,331.31937 c -0.702036,-8.90348 0.567935,-179.29639 1.935659,-259.709077 0.421018,-24.752931 0.433119,-24.930764 1.711574,-25.158613 0.708155,-0.126207 5.073378,-0.333311 9.700493,-0.460229 l 8.412937,-0.230763 0.290652,1.682392 c 0.256301,1.483563 2.244493,27.417574 8.927146,116.44573 1.00096,13.33518 4.03369,54.67423 6.73941,91.86456 2.70571,37.19031 5.13049,69.96741 5.38841,72.83793 l 0.46893,5.2192 -2.77451,0.31087 c -2.1001,0.23535 -39.080917,2.99004 -40.139926,2.99004 -0.112241,0 -0.409589,-2.60643 -0.660775,-5.79204 z"
       id="path850" />
    <path
       style="opacity:1;fill:#ffffff;fill-opacity:1;fill-rule:evenodd;stroke:#000000;stroke-width:0;stroke-linecap:round;stroke-linejoin:round;stroke-miterlimit:4;stroke-dasharray:none;stroke-opacity:0.39215686;paint-order:normal"
       d="m 57.362409,333.87951 -7.094974,-1.86457 0.578787,-21.69154 c 0.318329,-11.93034 2.3139,-50.33573 4.434593,-85.34529 4.592645,-75.81767 7.295809,-123.63825 8.690509,-153.739958 1.048844,-22.637171 1.474799,-26.702206 2.797992,-26.702206 0.416201,0 2.178458,0.278933 3.916116,0.61985 l 3.159394,0.61985 -0.669503,8.685463 c -1.647825,21.377355 -2.428547,46.268811 -2.446582,78.003311 -0.01078,18.83989 -0.45747,46.39171 -0.992807,61.22626 -0.535337,14.83456 -1.422474,49.30468 -1.971414,76.60028 -1.002739,49.85998 -1.65772,65.5796 -2.729047,65.49742 -0.317951,-0.0243 -3.770828,-0.88339 -7.673064,-1.90887 z"
       id="path852" />
    <path
       style="opacity:1;fill:#ffffff;fill-opacity:1;fill-rule:evenodd;stroke:#000000;stroke-width:0;stroke-linecap:round;stroke-linejoin:round;stroke-miterlimit:4;stroke-dasharray:none;stroke-opacity:0.39215686;paint-order:normal"
       d="m 77.848423,43.372225 c 0.178647,-0.647129 1.036402,-3.999691 1.906115,-7.45014 2.37628,-9.427465 2.43302,-9.459531 7.150056,-4.04052 3.923819,4.507748 8.497702,10.698017 8.497702,11.50074 0,0.233693 -0.781712,0.424895 -1.737139,0.424895 -1.201773,0 -1.850071,-0.387215 -2.103578,-1.256435 -0.201541,-0.691039 -1.126125,-2.141453 -2.054632,-3.223144 -2.977798,-3.469073 -7.371527,-2.103638 -8.241526,2.561205 -0.343265,1.840558 -0.714673,2.278129 -2.079849,2.450342 -1.37369,0.173287 -1.605622,0.0056 -1.337149,-0.966943 z"
       id="path854" />
    <path
       style="opacity:1;fill:#ffffff;fill-opacity:1;fill-rule:evenodd;stroke:#000000;stroke-width:0;stroke-linecap:round;stroke-linejoin:round;stroke-miterlimit:4;stroke-dasharray:none;stroke-opacity:0.39215686;paint-order:normal"
       d="m 67.879693,42.468665 c -0.670639,-0.173399 -1.219341,-0.615785 -1.219341,-0.983074 0,-0.575985 7.276777,-9.310404 10.271961,-12.32958 0.906938,-0.914203 0.964969,-0.834278 0.500549,0.689395 -0.288929,0.947916 -1.608117,4.282857 -2.931534,7.41098 -2.493441,5.893671 -2.862568,6.184231 -6.621635,5.212279 z"
       id="path856" />
  </g>
  <g
     transform="translate(18.17884,9.327046)"
     id="g1036">
    <path
       id="path2999"
       d="m 132.48763,365.25952 c -3.29684,9.47598 -7.39093,18.37637 -9.01472,29.44774 -1.50519,9.14699 -2.32394,18.64074 -2.79944,28.13825 -0.0891,7.235 0.24098,14.51631 1.18224,21.55477 -1.76819,2.17088 -4.00318,3.00154 -6.09347,2.29451 0.56642,-19.00096 1.81447,-38.0703 4.75615,-56.36375 1.71175,-9.11414 4.35416,-17.66508 7.67035,-25.10738 1.20292,-1.81228 3.10509,-1.79419 4.29904,0.0365 z"
       style="fill:url(#linearGradient3198);stroke-width:0.39733511" />
    <path
       id="path3174"
       d="m 149.42047,282.65228 c -7.51231,2.77259 -4.96814,13.46904 -21.45559,13.60581 -3.45137,-0.002 -5.36339,2.30678 -4.65704,4.48939 0.79306,3.74285 5.06636,4.73761 7.57095,5.25446 3.5191,0.94334 22.72724,3.19525 21.41425,8.65324 -6.69778,1.30776 -11.76326,-4.30513 -18.96566,-6.19204 -2.9164,-0.48577 -5.97472,-1.40435 -8.78895,-0.9596 -3.19275,0.49878 -8.90418,3.11675 -8.70362,6.33957 0.36637,4.10107 2.74177,4.01482 5.12412,4.34778 4.79104,0.87809 9.54191,2.29047 14.3007,3.59946 3.64518,1.58533 14.64434,1.93112 16.1532,8.26665 -9.84421,-3.85974 -23.24798,-11.46658 -33.05642,-5.64983 -1.70885,1.42654 -6.17147,3.79981 -4.23131,7.3443 2.14483,1.88981 5.93574,2.28696 7.26896,2.97983 0.028,2.33272 -8.62974,0.98657 -7.95448,4.14839 0.90722,3.65794 2.58065,4.8144 4.54328,5.35682 5.72433,1.379 -8.27877,2.85609 -7.3707,8.23972 1.01246,4.77811 4.94146,4.58448 7.37979,5.06962 3.52936,0.66507 7.15577,-0.46292 10.58309,1.66582 -2.96786,-2.40844 -12.67749,2.394 -12.44321,5.7376 0.56056,1.22134 5.06695,0.6402 4.63388,3.91229 -2.36761,2.39816 -6.05712,2.10724 -7.7718,4.06855 -2.76661,3.13834 11.11615,6.43219 9.73748,7.29423 -3.1007,-0.54921 -9.79848,10.03111 -3.85307,7.61514 2.70688,-1.37625 5.41382,-2.75245 8.12073,-4.1287 1.91152,-1.54354 4.6415,-1.20018 6.83441,-2.40504 3.10421,-0.54398 2.96083,-8.95801 -0.35645,-8.12827 2.05938,-0.41794 7.75187,-1.01463 3.81788,-5.27799 -1.3032,-1.36607 -3.79706,-2.74523 -0.81008,-2.48796 4.45062,0.27826 6.34388,0.079 7.70349,-5.29124 -1.88572,-2.43713 -2.37271,-4.79592 -0.0371,-3.9208 4.90422,1.5374 7.71492,-1.77238 9.95123,-5.21585 -3.48362,-8.81155 2.28786,-10.02142 -0.16493,-14.47054 -0.96806,-2.84984 2.33148,-2.87714 4.15097,-3.61545 2.16599,-0.83835 5.59238,-3.49096 3.00481,-7.92635 -1.62069,-3.26444 -4.05627,-5.10214 -6.26706,-6.78164 2.4738,-1.64368 7.07426,-1.77312 7.44986,-5.57822 0.71277,-7.53921 -7.70114,-8.00658 -7.52199,-11.36697 1.57794,-2.50665 6.68635,-2.67782 5.72286,-6.25666 -1.40688,-4.64882 -4.32836,-4.16181 -6.79571,-4.61215 -1.98617,0.28728 -1.66382,-0.78957 -0.0109,-1.54812 1.69874,-1.18338 3.39742,-2.36682 5.09627,-3.55019 3.95246,-3.55036 -4.97986,-5.35128 -9.34605,-2.62484 h 2e-5 z m -26.21467,51.80801 c 3.56249,0.29518 7.13935,0.24441 10.69305,0.58895 2.85301,1.30367 7.6466,2.19694 9.16572,4.51405 -6.58929,-2.09194 -13.29206,-2.75416 -19.85877,-5.103 z"
       style="fill:url(#linearGradient3190);stroke-width:0.39733511" />
  </g>
  <g
     transform="translate(-11.928216,5.109618)"
     id="g1032">
    <path
       id="path3537"
       d="m 38.181563,339.2153 c 2.33968,17.4849 2.67441,29.11494 1.84294,52.11322 -0.8725,15.85509 1.14473,19.66624 -0.87194,21.88898 -6.75265,2.77148 -4.0548,-4.53933 -2.46776,-25.16824 1.21624,-16.9137 -0.73714,-28.67102 -1.56856,-43.65172 0.37027,-3.28071 1.7379,-5.59813 3.06532,-5.18307 z"
       style="fill:url(#linearGradient7194);stroke-width:0.76362711" />
    <path
       id="path3468"
       d="m 33.538163,287.04103 c -2.44415,-2.06793 -10.94355,11.19439 -9.03491,11.06918 2.97735,-0.40758 6.01952,-0.72471 8.79203,-3.07158 -3.01934,2.07166 -6.58078,13.51544 -9.83792,12.39269 -2.05527,-4.45779 -11.59386,6.3974 -8.77175,8.28755 7.05188,-0.76158 7.38042,2.17369 10.27014,1.55054 6.2376,0.0209 10.98639,0.19198 17.23807,0.73278 -8.49562,2.01133 -17.03689,3.7296 -25.66269,3.34497 -4.20374,-5.3e-4 -10.2611304,7.75526 -4.15629,6.57942 7.51792,-0.9298 15.08993,-0.58412 22.64053,-0.68899 -1.52584,0.93276 -4.17365,1.26638 -6.11362,1.67791 -2.50102,-0.0621 -4.47999,3.28247 -6.6146,5.47033 -2.14154,3.83257 2.07471,2.38872 3.10398,2.47068 1.99824,-0.12312 3.99907,-0.24189 6.00768,-0.0293 -2.24371,0.71639 -9.89315,3.56527 -11.06414,8.16224 4.94567,0.51736 9.82271,-1.08322 14.77492,-0.34985 -2.55967,1.37752 -8.63368,3.63037 -7.27053,6.75203 1.79008,4.20033 5.1548,-0.1516 6.58585,2.85158 -2.40927,4.18253 1.54371,6.97668 2.94755,4.31229 1.22938,-1.08767 3.43178,-3.63833 4.0778,-2.98238 -2.29685,2.96841 -5.44676,3.43603 -6.95496,8.87108 0.66856,4.35803 2.57472,-0.18922 3.72131,-0.77659 0.88225,-0.89484 1.7645,-1.78968 2.6468,-2.68446 -0.85644,-3.24056 3.24401,-4.79917 0.43755,-7.19896 -0.22116,-2.02457 3.02306,-4.46057 0.36733,-5.6957 -3.44373,-1.32982 2.54829,-5.49631 3.44406,-9.83582 1.58581,-1.34274 4.59709,-4.63711 4.68009,-7.01496 -3.37362,0.34626 -6.80563,-0.49934 -10.16364,-0.0522 2.8021,-0.79762 5.68197,-1.17687 8.2674,-3.73622 1.02437,-1.33592 5.12284,-4.21441 3.34607,-5.44933 -1.8102,-0.98587 -4.94061,0.56425 -5.88033,-0.0119 2.66054,-0.37433 5.40595,-1.22229 7.63062,-4.48407 0.77597,-1.07722 2.925,-5.76835 1.44559,-4.92582 -1.0167,0.47403 -3.61509,0.62702 -1.541,-1.73493 1.07396,-1.19012 5.27258,-4.62449 3.79784,-5.44995 -2.64222,-0.59568 -4.7787,0.50686 -7.8425,0.72126 -3.44232,0.40097 -6.88959,0.71401 -10.34059,0.93502 1.63066,-2.78566 4.92765,-2.35167 5.37948,-6.85902 0.24366,-3.34994 -7.09359,-0.25327 -10.14223,-0.44953 1.01783,-2.32393 3.08042,-3.91979 4.2096,-6.80479 1.12191,-3.07685 -3.47511,-1.44343 -4.90859,-1.63518 -3.35199,0.15093 -0.47973,-2.80108 0.48692,-4.25993 z"
       style="fill:url(#linearGradient7191);stroke-width:0.76362711" />
  </g>
  <g
     transform="translate(8.1103273,7.1561714)"
     id="g1028">
    <path
       id="path6413-6-0"
       d="m 36.106835,440.64604 c 0,7.64061 -6.46807,10.37587 -14.93101,10.37587 -8.46294,0 -10.01939,-3.77285 -10.01939,-11.41376 0,-7.64061 4.79065,-15.66677 13.1627,-13.48853 5.31664,1.38341 9.42543,6.88117 11.7877,14.51918"
       style="fill:url(#linearGradient6538);stroke-width:0.76362711" />
    <path
       id="path6413-6-9"
       d="m 24.898435,447.25837 c 0,8.64466 7.9676,11.73973 18.39328,11.73973 10.42568,0 12.34278,-4.26873 12.34278,-12.91318 0,-8.64467 -5.90175,-17.72601 -16.21528,-15.26113 -6.54923,1.56523 -11.61133,7.78547 -14.52078,16.42734"
       style="fill:url(#linearGradient6538-4);stroke-width:0.76362711" />
  </g>
</svg>
