<?xml version="1.0" encoding="UTF-8" standalone="no"?>
<!DOCTYPE svg PUBLIC "-//W3C//DTD SVG 1.0//EN" "http://www.w3.org/TR/2001/PR-SVG-20010719/DTD/svg10.dtd">
<svg width="46cm" height="34cm" viewBox="53 19 907 661" xmlns="http://www.w3.org/2000/svg" xmlns:xlink="http://www.w3.org/1999/xlink">
  <g id="Background">
    <g>
      <path style="fill: #86a7d4; fill-opacity: 1; stroke-opacity: 1; stroke-width: 1; stroke: #000000" fill-rule="evenodd" d="M 102.736 537.096 C 84.8225,536.371 50.0803,551.616 54.9659,584.283 C 59.8515,616.951 83.194,624.21 92.9652,614.773 C 102.736,605.336 77.7655,660.508 125.536,675.027 C 173.306,689.546 197.734,666.316 190.677,649.619 C 183.62,632.922 232.477,688.82 255.276,656.878 C 278.076,624.936 231.934,594.447 241.705,598.802 C 251.476,603.158 281.333,597.35 271.562,542.904 C 261.791,488.458 173.849,530.563 183.62,522.577 C 193.392,514.592 168.964,474.665 138.564,482.65 C 108.165,490.636 106.009,505.126 102.752,537.068 L 102.736,537.096z"/>
      <text font-size="27.0933" style="fill: #000000; fill-opacity: 1; stroke: none;text-anchor:middle;font-family:sans-serif;font-style:normal;font-weight:normal" x="171.906" y="594.36">
        <tspan x="171.906" y="594.36"></tspan>
      </text>
    </g>
    <g>
      <path style="fill: #86a7d4; fill-opacity: 1; stroke-opacity: 1; stroke-width: 1; stroke: #000000" fill-rule="evenodd" d="M 788.236 76.4965 C 770.323,75.7705 735.58,91.0155 740.466,123.683 C 745.352,156.351 768.694,163.61 778.465,154.173 C 788.236,144.736 763.265,199.908 811.036,214.427 C 858.806,228.946 883.234,205.716 876.177,189.019 C 869.12,172.322 917.977,228.22 940.776,196.278 C 963.576,164.336 917.434,133.847 927.205,138.202 C 936.976,142.558 966.833,136.75 957.062,82.3041 C 947.291,27.8577 859.349,69.9629 869.12,61.9774 C 878.892,53.992 854.464,14.0645 824.064,22.05 C 793.665,30.0356 791.509,44.5263 788.252,76.4682 L 788.236,76.4965z"/>
      <text font-size="27.0933" style="fill: #000000; fill-opacity: 1; stroke: none;text-anchor:middle;font-family:sans-serif;font-style:normal;font-weight:normal" x="857.406" y="133.76">
        <tspan x="857.406" y="133.76">2</tspan>
      </text>
    </g>
    <g>
      <path style="fill: #ecdc88; fill-opacity: 1; stroke-opacity: 1; stroke-width: 1; stroke: #000000" fill-rule="evenodd" d="M 452.068 296.404 C 417.876,295.326 351.564,317.962 360.889,366.469 C 370.214,414.976 414.767,425.755 433.418,411.742 C 452.068,397.729 404.406,479.651 495.585,501.21 C 586.763,522.768 633.388,488.275 619.919,463.482 C 606.449,438.69 699.7,521.691 743.217,474.262 C 786.734,426.833 698.664,381.56 717.314,388.028 C 735.964,394.495 792.951,385.872 774.301,305.027 C 755.65,224.183 587.799,286.703 606.449,274.845 C 625.099,262.988 578.474,203.702 520.452,215.559 C 462.429,227.416 458.314,248.933 452.097,296.362 L 452.068,296.404z"/>
      <text font-size="22.5778" style="fill: #000000; fill-opacity: 1; stroke: none;text-anchor:middle;font-family:sans-serif;font-style:normal;font-weight:normal" x="584.09" y="375.915">
        <tspan x="584.09" y="375.915">1</tspan>
      </text>
    </g>
    <g>
      <rect style="fill: #b3b3b3; fill-opacity: 1; stroke-opacity: 1; stroke-width: 0.8; stroke: #000000" x="806.195" y="75" width="38.8636" height="90.6818" rx="0" ry="0"/>
      <rect style="fill: none; stroke-opacity: 1; stroke-width: 0.1; stroke: #000000" x="810.081" y="80.4409" width="31.0909" height="10.3636" rx="0" ry="0"/>
      <rect style="fill: none; stroke-opacity: 1; stroke-width: 0.1; stroke: #000000" x="810.081" y="90.8045" width="31.0909" height="10.3636" rx="0" ry="0"/>
      <rect style="fill: none; stroke-opacity: 1; stroke-width: 0.1; stroke: #000000" x="810.081" y="101.168" width="31.0909" height="10.3636" rx="0" ry="0"/>
      <rect style="fill: none; stroke-opacity: 1; stroke-width: 0.1; stroke: #000000" x="810.081" y="111.532" width="31.0909" height="10.3636" rx="0" ry="0"/>
      <rect style="fill: none; stroke-opacity: 1; stroke-width: 0.1; stroke: #000000" x="810.081" y="123.968" width="19.4318" height="6.21818" rx="0" ry="0"/>
      <ellipse style="fill: #00ff00; fill-opacity: 1; stroke-opacity: 1; stroke-width: 0.1; stroke: #000000" cx="839.229" cy="125.005" rx="1.36023" ry="1.36023"/>
      <ellipse style="fill: #ffff00; fill-opacity: 1; stroke-opacity: 1; stroke-width: 0.1; stroke: #000000" cx="839.229" cy="129.15" rx="1.36023" ry="1.36023"/>
      <rect style="fill: #ffffff; fill-opacity: 1; stroke-opacity: 1; stroke-width: 0.1; stroke: #000000" x="831.456" y="126.041" width="4.66364" height="4.14545" rx="0" ry="0"/>
      <path style="fill: none; stroke-opacity: 1; stroke-width: 0.1; stroke: #000000" d="M 812.672 138.477 L 812.672,161.148"/>
      <path style="fill: none; stroke-opacity: 1; stroke-width: 0.1; stroke: #000000" d="M 819.149 138.477 L 819.149,161.148"/>
      <path style="fill: none; stroke-opacity: 1; stroke-width: 0.1; stroke: #000000" d="M 825.627 138.477 L 825.627,161.148"/>
      <path style="fill: none; stroke-opacity: 1; stroke-width: 0.1; stroke: #000000" d="M 832.104 138.477 L 832.104,161.148"/>
      <path style="fill: none; stroke-opacity: 1; stroke-width: 0.1; stroke: #000000" d="M 838.581 138.477 L 838.581,161.148"/>
      <path style="fill: none; stroke-opacity: 1; stroke-width: 0.1; stroke: #000000" d="M 845.058 138.477 L 845.058,161.148"/>
      <polygon style="fill: #999999; fill-opacity: 1; stroke-opacity: 1; stroke-width: 0.1; stroke: #000000" fill-rule="evenodd" points="798.422,173.455 806.195,157.909 806.195,165.682 845.058,165.682 845.058,157.909 855.422,173.455 "/>
      <text font-size="12.8" style="fill: #000000; fill-opacity: 1; stroke: none;text-anchor:middle;font-family:sans-serif;font-style:normal;font-weight:normal" x="826.922" y="188.045">
        <tspan x="826.922" y="188.045">2a</tspan>
      </text>
    </g>
    <g>
      <rect style="fill: #b3b3b3; fill-opacity: 1; stroke-opacity: 1; stroke-width: 0.5; stroke: #000000" x="114.661" y="535" width="93.4746" height="70.1059" rx="0" ry="0"/>
      <rect style="fill: #000000; fill-opacity: 1; stroke: none" x="124.787" y="545.126" width="73.2218" height="48.2952" rx="0" ry="0"/>
      <polygon style="fill: #b3b3b3; fill-opacity: 1; stroke-opacity: 1; stroke-width: 0.5; stroke: #000000" fill-rule="evenodd" points="127.319,605.106 175.419,605.106 175.419,616.011 129.851,616.011 "/>
      <polygon style="fill: #b3b3b3; fill-opacity: 1; stroke-opacity: 1; stroke-width: 0.5; stroke: #000000" fill-rule="evenodd" points="175.419,605.106 195.478,605.106 192.946,616.011 175.419,616.011 "/>
      <rect style="fill: #ffffff; fill-opacity: 1; stroke-opacity: 1; stroke-width: 0.25; stroke: #000000" x="178.691" y="608.378" width="4.36215" height="4.36215" rx="0" ry="0"/>
      <polygon style="fill: #b3b3b3; fill-opacity: 1; stroke-opacity: 1; stroke-width: 0.5; stroke: #000000" fill-rule="evenodd" points="152.051,616.011 170.746,616.011 170.746,621.464 180.093,621.464 180.093,626.917 142.703,626.917 142.703,621.464 152.051,621.464 "/>
      <text font-size="12.8" style="fill: #000000; fill-opacity: 1; stroke: none;text-anchor:middle;font-family:sans-serif;font-style:normal;font-weight:normal" x="161.398" y="642.032">
        <tspan x="161.398" y="642.032">3b</tspan>
      </text>
    </g>
    <g>
      <polygon style="fill: none; stroke-opacity: 1; stroke-width: 1.6; stroke: #000000" points="291,487.987 307.8,487.987 319,483.32 347,483.32 355.68,487.987 375,487.987 375,506.653 291,506.653 "/>
      <rect style="fill: #b3b3b3; fill-opacity: 1; stroke-opacity: 1; stroke-width: 0.8; stroke: #000000" x="295.2" y="490.32" width="75.6" height="14" rx="0" ry="0"/>
      <ellipse style="fill: #ffffff; fill-opacity: 1; stroke-opacity: 1; stroke-width: 0.8; stroke: #000000" cx="304.44" cy="497.32" rx="4.66667" ry="4.66667"/>
      <ellipse style="fill: #ffffff; fill-opacity: 1; stroke-opacity: 1; stroke-width: 0.8; stroke: #000000" cx="322.92" cy="497.32" rx="4.66667" ry="4.66667"/>
      <ellipse style="fill: #ffffff; fill-opacity: 1; stroke-opacity: 1; stroke-width: 0.8; stroke: #000000" cx="342.24" cy="497.32" rx="4.66667" ry="4.66667"/>
      <ellipse style="fill: #ffffff; fill-opacity: 1; stroke-opacity: 1; stroke-width: 0.8; stroke: #000000" cx="360.72" cy="497.32" rx="4.66667" ry="4.66667"/>
      <text font-size="12.8" style="fill: #000000; fill-opacity: 1; stroke: none;text-anchor:middle;font-family:sans-serif;font-style:normal;font-weight:normal" x="333" y="526.12">
        <tspan x="333" y="526.12">3a</tspan>
      </text>
    </g>
    <g>
      <line style="fill: none; stroke-opacity: 1; stroke-width: 1; stroke: #000000" x1="217.75" y1="552.726" x2="298.769" y2="512.136"/>
      <polygon style="fill: #000000; fill-opacity: 1; stroke-opacity: 1; stroke-width: 1; stroke: #000000" fill-rule="evenodd" points="215.511,548.256 208.81,557.206 219.99,557.197 "/>
      <polygon style="fill: #000000; fill-opacity: 1; stroke-opacity: 1; stroke-width: 1; stroke: #000000" fill-rule="evenodd" points="301.008,516.607 307.709,507.657 296.529,507.666 "/>
    </g>
    <g>
      <line style="fill: none; stroke-opacity: 1; stroke-width: 1; stroke: #000000" x1="360.585" y1="479.683" x2="427.52" y2="442.549"/>
      <polygon style="fill: #000000; fill-opacity: 1; stroke-opacity: 1; stroke-width: 1; stroke: #000000" fill-rule="evenodd" points="358.16,475.311 351.841,484.534 363.011,484.055 "/>
      <polygon style="fill: #000000; fill-opacity: 1; stroke-opacity: 1; stroke-width: 1; stroke: #000000" fill-rule="evenodd" points="429.945,446.922 436.264,437.698 425.094,438.177 "/>
    </g>
    <g>
      <line style="fill: none; stroke-opacity: 1; stroke-width: 1; stroke: #000000" x1="685.63" y1="256.358" x2="798.126" y2="151.156"/>
      <polygon style="fill: #000000; fill-opacity: 1; stroke-opacity: 1; stroke-width: 1; stroke: #000000" fill-rule="evenodd" points="682.215,252.706 678.326,263.188 689.045,260.01 "/>
      <polygon style="fill: #000000; fill-opacity: 1; stroke-opacity: 1; stroke-width: 1; stroke: #000000" fill-rule="evenodd" points="801.541,154.808 805.43,144.326 794.711,147.504 "/>
    </g>
  </g>
</svg>
