<?xml version="1.0" encoding="UTF-8" standalone="no"?>
<!DOCTYPE svg PUBLIC "-//W3C//DTD SVG 1.0//EN" "http://www.w3.org/TR/2001/PR-SVG-20010719/DTD/svg10.dtd">
<svg width="44cm" height="37cm" viewBox="41 18 875 729" xmlns="http://www.w3.org/2000/svg" xmlns:xlink="http://www.w3.org/1999/xlink">
  <g id="Background">
    <g>
      <path style="fill: #86a7d4; fill-opacity: 1; stroke-opacity: 1; stroke-width: 1; stroke: #000000" fill-rule="evenodd" d="M 118.609 266.9 C 109.284,266.543 91.1993,274.042 93.7425,290.112 C 96.2857,306.182 108.437,309.753 113.523,305.111 C 118.609,300.468 105.611,327.608 130.478,334.75 C 155.344,341.893 168.06,330.465 164.387,322.252 C 160.713,314.038 186.145,341.536 198.014,325.823 C 209.882,310.11 185.863,295.111 190.949,297.254 C 196.036,299.397 211.577,296.54 206.491,269.757 C 201.405,242.973 155.627,263.686 160.713,259.758 C 165.8,255.829 153.084,236.188 137.26,240.117 C 121.435,244.045 120.313,251.173 118.617,266.886 L 118.609,266.9z"/>
      <text font-size="22.5778" style="fill: #000000; fill-opacity: 1; stroke: none;text-anchor:middle;font-family:sans-serif;font-style:normal;font-weight:normal" x="154.615" y="297.959">
        <tspan x="154.615" y="297.959"></tspan>
      </text>
    </g>
    <g>
      <path style="fill: #86a7d4; fill-opacity: 1; stroke-opacity: 1; stroke-width: 1; stroke: #000000" fill-rule="evenodd" d="M 95.6111 622.489 C 79.4149,621.855 48.0041,635.175 52.4213,663.718 C 56.8384,692.261 77.9425,698.604 86.7768,690.359 C 95.6111,682.113 73.0346,730.319 116.224,743.004 C 159.414,755.69 181.5,735.393 175.119,720.804 C 168.739,706.216 212.91,755.056 233.524,727.147 C 254.137,699.238 212.42,672.598 221.254,676.404 C 230.088,680.21 257.082,675.136 248.248,627.564 C 239.413,579.992 159.905,616.781 168.739,609.804 C 177.573,602.826 155.488,567.94 128.003,574.917 C 100.519,581.895 98.5696,594.556 95.6248,622.465 L 95.6111,622.489z"/>
      <text font-size="22.5778" style="fill: #000000; fill-opacity: 1; stroke: none;text-anchor:middle;font-family:sans-serif;font-style:normal;font-weight:normal" x="158.148" y="672.18">
        <tspan x="158.148" y="672.18"></tspan>
      </text>
    </g>
    <g>
      <path style="fill: #86a7d4; fill-opacity: 1; stroke-opacity: 1; stroke-width: 1; stroke: #000000" fill-rule="evenodd" d="M 744.236 75.4965 C 726.323,74.7705 691.58,90.0155 696.466,122.683 C 701.352,155.351 724.694,162.61 734.465,153.173 C 744.236,143.736 719.265,198.908 767.036,213.427 C 814.806,227.946 839.234,204.716 832.177,188.019 C 825.12,171.322 873.977,227.22 896.776,195.278 C 919.576,163.336 873.434,132.847 883.205,137.202 C 892.976,141.558 922.833,135.75 913.062,81.3041 C 903.291,26.8577 815.349,68.9629 825.12,60.9774 C 834.892,52.992 810.464,13.0645 780.064,21.05 C 749.665,29.0356 747.509,43.5263 744.252,75.4682 L 744.236,75.4965z"/>
      <text font-size="27.0933" style="fill: #000000; fill-opacity: 1; stroke: none;text-anchor:middle;font-family:sans-serif;font-style:normal;font-weight:normal" x="813.406" y="132.76">
        <tspan x="813.406" y="132.76">2</tspan>
      </text>
    </g>
    <g>
      <path style="fill: #ecdc88; fill-opacity: 1; stroke-opacity: 1; stroke-width: 1; stroke: #000000" fill-rule="evenodd" d="M 402.068 350.404 C 367.876,349.326 301.564,371.962 310.889,420.469 C 320.214,468.976 364.767,479.755 383.418,465.742 C 402.068,451.729 354.406,533.651 445.585,555.21 C 536.763,576.768 583.388,542.275 569.919,517.482 C 556.449,492.69 649.7,575.691 693.217,528.262 C 736.734,480.833 648.664,435.56 667.314,442.028 C 685.964,448.495 742.951,439.872 724.301,359.027 C 705.65,278.183 537.799,340.703 556.449,328.845 C 575.099,316.988 528.474,257.702 470.452,269.559 C 412.429,281.416 408.314,302.933 402.097,350.362 L 402.068,350.404z"/>
      <text font-size="22.5778" style="fill: #000000; fill-opacity: 1; stroke: none;text-anchor:middle;font-family:sans-serif;font-style:normal;font-weight:normal" x="534.09" y="429.915">
        <tspan x="534.09" y="429.915">1</tspan>
      </text>
    </g>
    <g>
      <rect style="fill: #b3b3b3; fill-opacity: 1; stroke-opacity: 1; stroke-width: 0.8; stroke: #000000" x="751.195" y="67" width="38.8636" height="90.6818" rx="0" ry="0"/>
      <rect style="fill: none; stroke-opacity: 1; stroke-width: 0.1; stroke: #000000" x="755.081" y="72.4409" width="31.0909" height="10.3636" rx="0" ry="0"/>
      <rect style="fill: none; stroke-opacity: 1; stroke-width: 0.1; stroke: #000000" x="755.081" y="82.8045" width="31.0909" height="10.3636" rx="0" ry="0"/>
      <rect style="fill: none; stroke-opacity: 1; stroke-width: 0.1; stroke: #000000" x="755.081" y="93.1682" width="31.0909" height="10.3636" rx="0" ry="0"/>
      <rect style="fill: none; stroke-opacity: 1; stroke-width: 0.1; stroke: #000000" x="755.081" y="103.532" width="31.0909" height="10.3636" rx="0" ry="0"/>
      <rect style="fill: none; stroke-opacity: 1; stroke-width: 0.1; stroke: #000000" x="755.081" y="115.968" width="19.4318" height="6.21818" rx="0" ry="0"/>
      <ellipse style="fill: #00ff00; fill-opacity: 1; stroke-opacity: 1; stroke-width: 0.1; stroke: #000000" cx="784.229" cy="117.005" rx="1.36023" ry="1.36023"/>
      <ellipse style="fill: #ffff00; fill-opacity: 1; stroke-opacity: 1; stroke-width: 0.1; stroke: #000000" cx="784.229" cy="121.15" rx="1.36023" ry="1.36023"/>
      <rect style="fill: #ffffff; fill-opacity: 1; stroke-opacity: 1; stroke-width: 0.1; stroke: #000000" x="776.456" y="118.041" width="4.66364" height="4.14545" rx="0" ry="0"/>
      <path style="fill: none; stroke-opacity: 1; stroke-width: 0.1; stroke: #000000" d="M 757.672 130.477 L 757.672,153.148"/>
      <path style="fill: none; stroke-opacity: 1; stroke-width: 0.1; stroke: #000000" d="M 764.149 130.477 L 764.149,153.148"/>
      <path style="fill: none; stroke-opacity: 1; stroke-width: 0.1; stroke: #000000" d="M 770.627 130.477 L 770.627,153.148"/>
      <path style="fill: none; stroke-opacity: 1; stroke-width: 0.1; stroke: #000000" d="M 777.104 130.477 L 777.104,153.148"/>
      <path style="fill: none; stroke-opacity: 1; stroke-width: 0.1; stroke: #000000" d="M 783.581 130.477 L 783.581,153.148"/>
      <path style="fill: none; stroke-opacity: 1; stroke-width: 0.1; stroke: #000000" d="M 790.058 130.477 L 790.058,153.148"/>
      <polygon style="fill: #999999; fill-opacity: 1; stroke-opacity: 1; stroke-width: 0.1; stroke: #000000" fill-rule="evenodd" points="743.422,165.455 751.195,149.909 751.195,157.682 790.058,157.682 790.058,149.909 800.422,165.455 "/>
      <text font-size="12.8" style="fill: #000000; fill-opacity: 1; stroke: none;text-anchor:middle;font-family:sans-serif;font-style:normal;font-weight:normal" x="771.922" y="180.045">
        <tspan x="771.922" y="180.045">2a</tspan>
      </text>
    </g>
    <g>
      <rect style="fill: #b3b3b3; fill-opacity: 1; stroke-opacity: 1; stroke-width: 0.5; stroke: #000000" x="107.661" y="620" width="93.4746" height="70.1059" rx="0" ry="0"/>
      <rect style="fill: #000000; fill-opacity: 1; stroke: none" x="117.787" y="630.126" width="73.2218" height="48.2952" rx="0" ry="0"/>
      <polygon style="fill: #b3b3b3; fill-opacity: 1; stroke-opacity: 1; stroke-width: 0.5; stroke: #000000" fill-rule="evenodd" points="120.319,690.106 168.419,690.106 168.419,701.011 122.851,701.011 "/>
      <polygon style="fill: #b3b3b3; fill-opacity: 1; stroke-opacity: 1; stroke-width: 0.5; stroke: #000000" fill-rule="evenodd" points="168.419,690.106 188.478,690.106 185.946,701.011 168.419,701.011 "/>
      <rect style="fill: #ffffff; fill-opacity: 1; stroke-opacity: 1; stroke-width: 0.25; stroke: #000000" x="171.691" y="693.378" width="4.36215" height="4.36215" rx="0" ry="0"/>
      <polygon style="fill: #b3b3b3; fill-opacity: 1; stroke-opacity: 1; stroke-width: 0.5; stroke: #000000" fill-rule="evenodd" points="145.051,701.011 163.746,701.011 163.746,706.464 173.093,706.464 173.093,711.917 135.703,711.917 135.703,706.464 145.051,706.464 "/>
      <text font-size="12.8" style="fill: #000000; fill-opacity: 1; stroke: none;text-anchor:middle;font-family:sans-serif;font-style:normal;font-weight:normal" x="154.398" y="727.032">
        <tspan x="154.398" y="727.032">3b</tspan>
      </text>
    </g>
    <g>
      <polygon style="fill: none; stroke-opacity: 1; stroke-width: 1.6; stroke: #000000" points="244,518.987 260.8,518.987 272,514.32 300,514.32 308.68,518.987 328,518.987 328,537.653 244,537.653 "/>
      <rect style="fill: #b3b3b3; fill-opacity: 1; stroke-opacity: 1; stroke-width: 0.8; stroke: #000000" x="248.2" y="521.32" width="75.6" height="14" rx="0" ry="0"/>
      <ellipse style="fill: #ffffff; fill-opacity: 1; stroke-opacity: 1; stroke-width: 0.8; stroke: #000000" cx="257.44" cy="528.32" rx="4.66667" ry="4.66667"/>
      <ellipse style="fill: #ffffff; fill-opacity: 1; stroke-opacity: 1; stroke-width: 0.8; stroke: #000000" cx="275.92" cy="528.32" rx="4.66667" ry="4.66667"/>
      <ellipse style="fill: #ffffff; fill-opacity: 1; stroke-opacity: 1; stroke-width: 0.8; stroke: #000000" cx="295.24" cy="528.32" rx="4.66667" ry="4.66667"/>
      <ellipse style="fill: #ffffff; fill-opacity: 1; stroke-opacity: 1; stroke-width: 0.8; stroke: #000000" cx="313.72" cy="528.32" rx="4.66667" ry="4.66667"/>
      <text font-size="12.8" style="fill: #000000; fill-opacity: 1; stroke: none;text-anchor:middle;font-family:sans-serif;font-style:normal;font-weight:normal" x="286" y="557.12">
        <tspan x="286" y="557.12">3a</tspan>
      </text>
    </g>
    <g>
      <line style="fill: none; stroke-opacity: 1; stroke-width: 1; stroke: #000000" x1="205.038" y1="612.098" x2="267.096" y2="546.092"/>
      <polygon style="fill: #000000; fill-opacity: 1; stroke-opacity: 1; stroke-width: 1; stroke: #000000" fill-rule="evenodd" points="201.395,608.673 198.188,619.384 208.68,615.523 "/>
      <polygon style="fill: #000000; fill-opacity: 1; stroke-opacity: 1; stroke-width: 1; stroke: #000000" fill-rule="evenodd" points="270.739,549.517 273.946,538.807 263.454,542.668 "/>
    </g>
    <g>
      <line style="fill: none; stroke-opacity: 1; stroke-width: 1; stroke: #000000" x1="315.58" y1="512.244" x2="377.53" y2="483.462"/>
      <polygon style="fill: #000000; fill-opacity: 1; stroke-opacity: 1; stroke-width: 1; stroke: #000000" fill-rule="evenodd" points="313.473,507.709 306.511,516.457 317.687,516.778 "/>
      <polygon style="fill: #000000; fill-opacity: 1; stroke-opacity: 1; stroke-width: 1; stroke: #000000" fill-rule="evenodd" points="379.637,487.997 386.599,479.249 375.423,478.928 "/>
    </g>
    <g>
      <line style="fill: none; stroke-opacity: 1; stroke-width: 1; stroke: #000000" x1="608.474" y1="312.785" x2="744.078" y2="149.711"/>
      <polygon style="fill: #000000; fill-opacity: 1; stroke-opacity: 1; stroke-width: 1; stroke: #000000" fill-rule="evenodd" points="604.63,309.588 602.08,320.474 612.319,315.982 "/>
      <polygon style="fill: #000000; fill-opacity: 1; stroke-opacity: 1; stroke-width: 1; stroke: #000000" fill-rule="evenodd" points="747.923,152.908 750.472,142.022 740.234,146.515 "/>
    </g>
    <g>
      <path style="fill: #86a7d4; fill-opacity: 1; stroke-opacity: 1; stroke-width: 1; stroke: #000000" fill-rule="evenodd" d="M 67.1094 49.8998 C 57.7843,49.5427 39.6993,57.042 42.2425,73.1119 C 44.7857,89.1819 56.9366,92.7528 62.023,88.1105 C 67.1094,83.4681 54.1108,110.608 78.9777,117.75 C 103.844,124.893 116.56,113.465 112.887,105.252 C 109.213,97.0381 134.645,124.536 146.514,108.823 C 158.382,93.1099 134.363,78.1114 139.449,80.2541 C 144.536,82.3968 160.077,79.5399 154.991,52.7567 C 149.905,25.9734 104.127,46.6858 109.213,42.7576 C 114.3,38.8294 101.584,19.1883 85.7596,23.1165 C 69.9352,27.0448 68.8128,34.173 67.1173,49.8859 L 67.1094,49.8998z"/>
      <text font-size="22.5778" style="fill: #000000; fill-opacity: 1; stroke: none;text-anchor:middle;font-family:sans-serif;font-style:normal;font-weight:normal" x="103.115" y="80.9594">
        <tspan x="103.115" y="80.9594"></tspan>
      </text>
    </g>
    <g>
      <path style="fill: #c9c9b6; fill-opacity: 1; stroke: none" fill-rule="evenodd" d="M 139.684 295.172 L 173.679,295.172 L 159.386,309.514 L 125.39,309.514 L 139.684,295.172z"/>
      <path style="fill: none; stroke-opacity: 1; stroke-width: 0.01; stroke: #494936" d="M 139.684 295.172 L 173.679,295.172 L 159.386,309.514 L 125.39,309.514 L 139.684,295.172"/>
      <path style="fill: none; stroke-opacity: 1; stroke-width: 0.01; stroke: #dbdbce" d="M 140.989 307.092 L 140.989,307.168 L 141.003,307.23 L 141.024,307.314 L 141.052,307.397 L 141.093,307.46 L 141.142,307.536 L 141.204,307.605 L 141.267,307.668 L 141.329,307.744 L 141.413,307.821 L 141.496,307.883 L 141.586,307.939 L 141.69,307.994 L 141.787,308.057 L 141.912,308.105 L 142.024,308.168 L 142.148,308.216 L 142.287,308.265 L 142.426,308.306 L 142.558,308.348 L 142.704,308.39 L 142.85,308.431 L 143.002,308.452 L 143.169,308.48 L 143.329,308.494 L 143.495,308.522 L 143.648,308.543 L 143.822,308.563 L 143.995,308.57 L 144.162,308.577 L 144.328,308.577"/>
      <path style="fill: none; stroke-opacity: 1; stroke-width: 0.01; stroke: #dbdbce" d="M 143.96 308.577 L 144.127,308.577 L 144.287,308.57 L 144.446,308.556 L 144.613,308.536 L 144.78,308.522 L 144.932,308.494 L 145.085,308.48 L 145.245,308.445 L 145.39,308.411 L 145.543,308.369 L 145.675,308.327 L 145.814,308.286 L 145.946,308.237 L 146.071,308.188 L 146.182,308.14 L 146.3,308.084 L 146.411,308.022 L 146.508,307.966 L 146.605,307.897 L 146.689,307.827 L 146.765,307.758 L 146.827,307.696 L 146.897,307.619 L 146.952,307.543 L 146.994,307.48 L 147.043,307.404 L 147.063,307.314 L 147.084,307.237 L 147.105,307.168 L 147.112,307.092"/>
      <path style="fill: none; stroke-opacity: 1; stroke-width: 0.01; stroke: #dbdbce" d="M 144.696 304.308 L 144.523,304.308 L 144.356,304.315 L 144.182,304.315 L 144.03,304.329 L 143.863,304.35 L 143.697,304.363 L 143.537,304.377 L 143.37,304.412 L 143.224,304.44 L 143.079,304.461 L 142.933,304.495 L 142.787,304.537 L 142.655,304.572 L 142.53,304.613 L 142.405,304.669 L 142.266,304.711 L 142.169,304.759 L 142.058,304.801 L 141.954,304.856 L 141.871,304.919 L 141.781,304.974 L 141.704,305.023 L 141.628,305.085 L 141.572,305.148 L 141.517,305.217 L 141.461,305.28 L 141.433,305.335 L 141.399,305.405 L 141.378,305.46 L 141.371,305.537 L 141.364,305.592"/>
      <path style="fill: none; stroke-opacity: 1; stroke-width: 0.01; stroke: #dbdbce" d="M 147.473 305.592 L 147.473,305.53 L 147.466,305.46 L 147.438,305.398 L 147.411,305.321 L 147.376,305.266 L 147.32,305.19 L 147.265,305.134 L 147.209,305.065 L 147.126,305.016 L 147.063,304.947 L 146.98,304.891 L 146.869,304.842 L 146.779,304.773 L 146.675,304.738 L 146.564,304.683 L 146.439,304.627 L 146.307,304.586 L 146.175,304.544 L 146.043,304.509 L 145.904,304.481 L 145.758,304.447 L 145.606,304.412 L 145.46,304.391 L 145.307,304.363 L 145.154,304.35 L 144.995,304.329 L 144.828,304.315 L 144.655,304.315 L 144.488,304.308 L 144.328,304.308"/>
      <path style="fill: #a5a585; fill-opacity: 1; stroke: none" fill-rule="evenodd" d="M 125.39 311 L 159.386,311 L 159.386,309.514 L 125.39,309.514 L 125.39,311z"/>
      <path style="fill: none; stroke-opacity: 1; stroke-width: 0.01; stroke: #494936" d="M 125.39 311 L 159.386,311 L 159.386,309.514 L 125.39,309.514 L 125.39,311"/>
      <path style="fill: #a5a585; fill-opacity: 1; stroke: none" fill-rule="evenodd" d="M 139.684 295.172 L 173.679,295.172 L 173.679,271.916 L 139.684,271.916 L 139.684,295.172z"/>
      <path style="fill: none; stroke-opacity: 1; stroke-width: 0.01; stroke: #494936" d="M 139.684 295.172 L 173.679,295.172 L 173.679,271.916 L 139.684,271.916 L 139.684,295.172"/>
      <path style="fill: #7a7a5a; fill-opacity: 1; stroke: none" fill-rule="evenodd" d="M 174.609 294.256 L 174.609,271 L 173.679,271.916 L 173.679,295.172 L 174.609,294.256z"/>
      <path style="fill: none; stroke-opacity: 1; stroke-width: 0.01; stroke: #494936" d="M 174.609 294.256 L 174.609,271 L 173.679,271.916 L 173.679,295.172 L 174.609,294.256"/>
      <path style="fill: #ffffff; fill-opacity: 1; stroke: none" fill-rule="evenodd" d="M 141.364 293.694 L 172.013,293.694 L 172.013,273.784 L 141.364,273.784 L 141.364,293.694z"/>
      <path style="fill: none; stroke-opacity: 1; stroke-width: 0.01; stroke: #494936" d="M 141.364 293.694 L 172.013,293.694 L 172.013,273.784 L 141.364,273.784 L 141.364,293.694"/>
      <path style="fill: #93936c; fill-opacity: 1; stroke: none" fill-rule="evenodd" d="M 141.364 296.297 L 169.958,296.297 L 162.53,303.746 L 133.936,303.746 L 141.364,296.297z"/>
      <path style="fill: none; stroke-opacity: 1; stroke-width: 0.01; stroke: #494936" d="M 141.364 296.297 L 169.958,296.297 L 162.53,303.746 L 133.936,303.746 L 141.364,296.297"/>
      <path style="fill: #7a7a5a; fill-opacity: 1; stroke: none" fill-rule="evenodd" d="M 145.814 306.62 L 145.814,306.578 L 145.807,306.536 L 145.8,306.495 L 145.779,306.446 L 145.772,306.404 L 145.744,306.37 L 145.731,306.328 L 145.696,306.3 L 145.661,306.259 L 145.64,306.217 L 145.606,306.182 L 145.564,306.148 L 145.522,306.106 L 145.474,306.071 L 145.432,306.05 L 145.383,306.016 L 145.328,305.988 L 145.265,305.967 L 145.217,305.932 L 145.154,305.918 L 145.092,305.891 L 145.036,305.877 L 144.967,305.856 L 144.904,305.842 L 144.828,305.828 L 144.766,305.807 L 144.696,305.8 L 144.634,305.8 L 144.564,305.793 L 144.481,305.793 L 144.425,305.793 L 144.425,305.793 L 144.349,305.793 L 144.273,305.793 L 144.21,305.8 L 144.141,305.8 L 144.078,305.807 L 144.002,305.828 L 143.94,305.842 L 143.87,305.856 L 143.808,305.877 L 143.745,305.891 L 143.69,305.918 L 143.62,305.932 L 143.572,305.967 L 143.516,305.988 L 143.461,306.016 L 143.412,306.05 L 143.37,306.071 L 143.322,306.106 L 143.28,306.148 L 143.245,306.182 L 143.197,306.217 L 143.176,306.259 L 143.134,306.3 L 143.113,306.328 L 143.093,306.37 L 143.072,306.404 L 143.058,306.446 L 143.051,306.495 L 143.037,306.536 L 143.023,306.578 L 143.023,306.62 L 143.023,306.62 L 143.023,306.668 L 143.037,306.71 L 143.051,306.751 L 143.058,306.793 L 143.072,306.835 L 143.093,306.869 L 143.113,306.918 L 143.134,306.953 L 143.176,306.994 L 143.197,307.022 L 143.245,307.064 L 143.28,307.099 L 143.322,307.14 L 143.37,307.168 L 143.412,307.196 L 143.461,307.23 L 143.516,307.258 L 143.572,307.279 L 143.62,307.314 L 143.69,307.328 L 143.745,307.355 L 143.808,307.369 L 143.87,307.39 L 143.94,307.404 L 144.002,307.418 L 144.078,307.432 L 144.141,307.446 L 144.21,307.446 L 144.273,307.446 L 144.349,307.453 L 144.425,307.453 L 144.425,307.453 L 144.481,307.453 L 144.564,307.446 L 144.634,307.446 L 144.696,307.446 L 144.766,307.432 L 144.828,307.418 L 144.904,307.404 L 144.967,307.39 L 145.036,307.369 L 145.092,307.355 L 145.154,307.328 L 145.217,307.314 L 145.265,307.279 L 145.328,307.258 L 145.383,307.23 L 145.432,307.196 L 145.474,307.168 L 145.522,307.14 L 145.564,307.099 L 145.606,307.064 L 145.64,307.022 L 145.661,306.994 L 145.696,306.953 L 145.731,306.918 L 145.744,306.869 L 145.772,306.835 L 145.779,306.793 L 145.8,306.751 L 145.807,306.71 L 145.814,306.668 L 145.814,306.62z"/>
      <path style="fill: none; stroke-opacity: 1; stroke-width: 0.01; stroke: #dbdbce" d="M 145.633 306.536 L 145.633,306.495 L 145.626,306.453 L 145.626,306.418 L 145.606,306.39 L 145.592,306.335 L 145.585,306.314 L 145.55,306.272 L 145.522,306.231 L 145.501,306.203 L 145.474,306.175 L 145.432,306.148 L 145.397,306.099 L 145.356,306.071 L 145.314,306.05 L 145.279,306.016 L 145.224,305.988 L 145.182,305.974 L 145.134,305.939 L 145.085,305.925 L 145.022,305.898 L 144.967,305.884 L 144.904,305.87 L 144.849,305.849 L 144.786,305.835 L 144.724,305.828 L 144.655,305.807 L 144.599,305.8 L 144.523,305.793 L 144.467,305.793 L 144.398,305.793 L 144.335,305.793 L 144.335,305.793 L 144.266,305.793 L 144.203,305.793 L 144.134,305.793 L 144.078,305.8 L 144.009,305.807 L 143.953,305.828 L 143.877,305.835 L 143.822,305.849 L 143.773,305.87 L 143.703,305.884 L 143.648,305.898 L 143.579,305.925 L 143.544,305.939 L 143.481,305.974 L 143.44,305.988 L 143.391,306.016 L 143.349,306.05 L 143.308,306.071 L 143.266,306.099 L 143.231,306.148 L 143.197,306.175 L 143.169,306.203 L 143.134,306.231 L 143.12,306.272 L 143.093,306.314 L 143.079,306.335 L 143.065,306.39 L 143.051,306.418 L 143.044,306.453 L 143.037,306.495 L 143.037,306.536 L 143.037,306.536 L 143.037,306.571 L 143.044,306.613 L 143.051,306.654 L 143.065,306.675 L 143.079,306.717 L 143.093,306.758 L 143.12,306.793 L 143.134,306.828 L 143.169,306.869 L 143.197,306.89 L 143.231,306.925 L 143.266,306.96 L 143.308,306.994 L 143.349,307.015 L 143.391,307.05 L 143.44,307.071 L 143.481,307.099 L 143.544,307.126 L 143.579,307.14 L 143.648,307.168 L 143.703,307.189 L 143.773,307.196 L 143.822,307.217 L 143.877,307.23 L 143.953,307.237 L 144.009,307.258 L 144.078,307.272 L 144.134,307.272 L 144.203,307.272 L 144.266,307.272 L 144.335,307.272 L 144.335,307.272 L 144.398,307.272 L 144.467,307.272 L 144.523,307.272 L 144.599,307.272 L 144.655,307.258 L 144.724,307.237 L 144.786,307.23 L 144.849,307.217 L 144.904,307.196 L 144.967,307.189 L 145.022,307.168 L 145.085,307.14 L 145.134,307.126 L 145.182,307.099 L 145.224,307.071 L 145.279,307.05 L 145.314,307.015 L 145.356,306.994 L 145.397,306.96 L 145.432,306.925 L 145.474,306.89 L 145.501,306.869 L 145.522,306.828 L 145.55,306.793 L 145.585,306.758 L 145.592,306.717 L 145.606,306.675 L 145.626,306.654 L 145.626,306.613 L 145.633,306.571 L 145.633,306.536"/>
      <path style="fill: none; stroke-opacity: 1; stroke-width: 0.01; stroke: #626248" d="M 141.184 307.272 L 141.184,307.355 L 141.197,307.418 L 141.225,307.494 L 141.246,307.578 L 141.288,307.647 L 141.329,307.709 L 141.392,307.786 L 141.454,307.862 L 141.524,307.925 L 141.593,307.994 L 141.683,308.057 L 141.767,308.126 L 141.878,308.182 L 141.982,308.237 L 142.093,308.286 L 142.211,308.348 L 142.343,308.397 L 142.461,308.445 L 142.614,308.487 L 142.752,308.529 L 142.898,308.577 L 143.044,308.612 L 143.197,308.633 L 143.349,308.661 L 143.516,308.688 L 143.676,308.702 L 143.835,308.73 L 144.002,308.744 L 144.176,308.751 L 144.342,308.751 L 144.509,308.751"/>
      <path style="fill: none; stroke-opacity: 1; stroke-width: 0.01; stroke: #626248" d="M 144.134 308.751 L 144.307,308.751 L 144.467,308.751 L 144.641,308.737 L 144.793,308.716 L 144.953,308.702 L 145.12,308.688 L 145.265,308.661 L 145.425,308.626 L 145.564,308.591 L 145.717,308.563 L 145.862,308.522 L 145.994,308.48 L 146.126,308.431 L 146.251,308.369 L 146.376,308.32 L 146.48,308.265 L 146.591,308.209 L 146.689,308.14 L 146.779,308.084 L 146.869,308.008 L 146.945,307.952 L 147.022,307.883 L 147.084,307.8 L 147.126,307.723 L 147.188,307.661 L 147.216,307.578 L 147.251,307.501 L 147.279,307.418 L 147.279,307.355 L 147.293,307.272"/>
      <path style="fill: none; stroke-opacity: 1; stroke-width: 0.01; stroke: #626248" d="M 144.877 304.488 L 144.717,304.488 L 144.55,304.495 L 144.384,304.495 L 144.217,304.509 L 144.044,304.53 L 143.877,304.537 L 143.731,304.565 L 143.565,304.586 L 143.412,304.627 L 143.266,304.641 L 143.12,304.683 L 142.982,304.711 L 142.843,304.759 L 142.718,304.801 L 142.593,304.842 L 142.461,304.884 L 142.357,304.933 L 142.246,304.981 L 142.148,305.044 L 142.058,305.099 L 141.975,305.148 L 141.892,305.217 L 141.808,305.266 L 141.76,305.321 L 141.704,305.398 L 141.656,305.453 L 141.614,305.523 L 141.586,305.578 L 141.565,305.641 L 141.558,305.717 L 141.551,305.787"/>
      <path style="fill: none; stroke-opacity: 1; stroke-width: 0.01; stroke: #626248" d="M 147.667 305.787 L 147.654,305.71 L 147.647,305.641 L 147.633,305.578 L 147.598,305.509 L 147.556,305.446 L 147.508,305.377 L 147.452,305.321 L 147.39,305.259 L 147.32,305.19 L 147.237,305.134 L 147.154,305.072 L 147.063,305.016 L 146.952,304.967 L 146.855,304.919 L 146.737,304.87 L 146.626,304.815 L 146.501,304.773 L 146.369,304.738 L 146.223,304.697 L 146.085,304.669 L 145.946,304.627 L 145.8,304.599 L 145.647,304.572 L 145.481,304.544 L 145.335,304.53 L 145.175,304.509 L 145.009,304.495 L 144.835,304.495 L 144.682,304.488 L 144.509,304.488"/>
      <path style="fill: #7a7a5a; fill-opacity: 1; stroke: none" fill-rule="evenodd" d="M 173.679 296.477 L 159.386,310.82 L 159.386,309.514 L 173.679,295.172 L 173.679,296.477z"/>
      <path style="fill: none; stroke-opacity: 1; stroke-width: 0.01; stroke: #494936" d="M 173.679 296.477 L 159.386,310.82 L 159.386,309.514 L 173.679,295.172 L 173.679,296.477"/>
      <path style="fill: #7a7a5a; fill-opacity: 1; stroke: none" fill-rule="evenodd" d="M 168.854 294.075 L 168.854,294.429 L 171.638,294.429 L 171.638,294.075 L 168.854,294.075z"/>
      <path style="fill: none; stroke-opacity: 1; stroke-width: 0.01; stroke: #494936" d="M 168.854 294.075 L 168.854,294.429 L 171.638,294.429 L 171.638,294.075 L 168.854,294.075"/>
      <path style="fill: none; stroke-opacity: 1; stroke-width: 0.01; stroke: #000000" d="M 168.091 298.157 L 139.684,298.157"/>
      <path style="fill: none; stroke-opacity: 1; stroke-width: 0.01; stroke: #000000" d="M 166.244 300.025 L 137.837,300.025"/>
      <path style="fill: none; stroke-opacity: 1; stroke-width: 0.01; stroke: #000000" d="M 164.391 301.885 L 135.977,301.885"/>
      <path style="fill: #c9c9b6; fill-opacity: 1; stroke: none" fill-rule="evenodd" d="M 140.614 271 L 174.609,271 L 173.679,271.916 L 139.684,271.916 L 140.614,271z"/>
      <path style="fill: none; stroke-opacity: 1; stroke-width: 0.01; stroke: #494936" d="M 140.614 271 L 174.609,271 L 173.679,271.916 L 139.684,271.916 L 140.614,271"/>
    </g>
    <g>
      <path style="fill: #c9c9b6; fill-opacity: 1; stroke: none" fill-rule="evenodd" d="M 88.684 75.1722 L 122.679,75.1722 L 108.386,89.5144 L 74.3904,89.5144 L 88.684,75.1722z"/>
      <path style="fill: none; stroke-opacity: 1; stroke-width: 0.01; stroke: #494936" d="M 88.684 75.1722 L 122.679,75.1722 L 108.386,89.5144 L 74.3904,89.5144 L 88.684,75.1722"/>
      <path style="fill: none; stroke-opacity: 1; stroke-width: 0.01; stroke: #dbdbce" d="M 89.9892 87.0916 L 89.9892,87.168 L 90.003,87.2305 L 90.0239,87.3138 L 90.0516,87.3971 L 90.0933,87.4596 L 90.1419,87.5359 L 90.2044,87.6053 L 90.2668,87.6678 L 90.3293,87.7442 L 90.4126,87.8205 L 90.4959,87.883 L 90.5862,87.9386 L 90.6903,87.9941 L 90.7875,88.0566 L 90.9124,88.1052 L 91.0235,88.1677 L 91.1485,88.2162 L 91.2873,88.2648 L 91.4262,88.3065 L 91.5581,88.3481 L 91.7038,88.3898 L 91.8496,88.4314 L 92.0023,88.4523 L 92.1689,88.48 L 92.3286,88.4939 L 92.4952,88.5217 L 92.6479,88.5425 L 92.8215,88.5633 L 92.9951,88.5703 L 93.1617,88.5772 L 93.3283,88.5772"/>
      <path style="fill: none; stroke-opacity: 1; stroke-width: 0.01; stroke: #dbdbce" d="M 92.9603 88.5772 L 93.1269,88.5772 L 93.2866,88.5703 L 93.4463,88.5564 L 93.6129,88.5356 L 93.7795,88.5217 L 93.9322,88.4939 L 94.085,88.48 L 94.2446,88.4453 L 94.3904,88.4106 L 94.5431,88.369 L 94.675,88.3273 L 94.8139,88.2857 L 94.9458,88.2371 L 95.0707,88.1885 L 95.1818,88.1399 L 95.2998,88.0843 L 95.4109,88.0219 L 95.5081,87.9663 L 95.6053,87.8969 L 95.6886,87.8275 L 95.7649,87.7581 L 95.8274,87.6956 L 95.8968,87.6192 L 95.9524,87.5429 L 95.994,87.4804 L 96.0426,87.404 L 96.0634,87.3138 L 96.0843,87.2374 L 96.1051,87.168 L 96.112,87.0916"/>
      <path style="fill: none; stroke-opacity: 1; stroke-width: 0.01; stroke: #dbdbce" d="M 93.6962 84.3079 L 93.5226,84.3079 L 93.356,84.3148 L 93.1825,84.3148 L 93.0298,84.3287 L 92.8632,84.3495 L 92.6965,84.3634 L 92.5369,84.3773 L 92.3703,84.412 L 92.2245,84.4398 L 92.0787,84.4606 L 91.9329,84.4953 L 91.7871,84.537 L 91.6552,84.5717 L 91.5303,84.6133 L 91.4053,84.6689 L 91.2665,84.7105 L 91.1693,84.7591 L 91.0582,84.8008 L 90.9541,84.8563 L 90.8708,84.9188 L 90.7805,84.9743 L 90.7042,85.0229 L 90.6278,85.0854 L 90.5723,85.1479 L 90.5167,85.2173 L 90.4612,85.2798 L 90.4334,85.3353 L 90.3987,85.4047 L 90.3779,85.4603 L 90.371,85.5366 L 90.364,85.5922"/>
      <path style="fill: none; stroke-opacity: 1; stroke-width: 0.01; stroke: #dbdbce" d="M 96.473 85.5922 L 96.473,85.5297 L 96.4661,85.4603 L 96.4383,85.3978 L 96.4105,85.3214 L 96.3758,85.2659 L 96.3203,85.1895 L 96.2647,85.134 L 96.2092,85.0646 L 96.1259,85.016 L 96.0634,84.9465 L 95.9801,84.891 L 95.8691,84.8424 L 95.7788,84.773 L 95.6747,84.7383 L 95.5636,84.6827 L 95.4386,84.6272 L 95.3067,84.5856 L 95.1748,84.5439 L 95.043,84.5092 L 94.9041,84.4814 L 94.7583,84.4467 L 94.6056,84.412 L 94.4598,84.3912 L 94.3071,84.3634 L 94.1544,84.3495 L 93.9947,84.3287 L 93.8281,84.3148 L 93.6545,84.3148 L 93.4879,84.3079 L 93.3283,84.3079"/>
      <path style="fill: #a5a585; fill-opacity: 1; stroke: none" fill-rule="evenodd" d="M 74.3904 91 L 108.386,91 L 108.386,89.5144 L 74.3904,89.5144 L 74.3904,91z"/>
      <path style="fill: none; stroke-opacity: 1; stroke-width: 0.01; stroke: #494936" d="M 74.3904 91 L 108.386,91 L 108.386,89.5144 L 74.3904,89.5144 L 74.3904,91"/>
      <path style="fill: #a5a585; fill-opacity: 1; stroke: none" fill-rule="evenodd" d="M 88.684 75.1722 L 122.679,75.1722 L 122.679,51.9163 L 88.684,51.9163 L 88.684,75.1722z"/>
      <path style="fill: none; stroke-opacity: 1; stroke-width: 0.01; stroke: #494936" d="M 88.684 75.1722 L 122.679,75.1722 L 122.679,51.9163 L 88.684,51.9163 L 88.684,75.1722"/>
      <path style="fill: #7a7a5a; fill-opacity: 1; stroke: none" fill-rule="evenodd" d="M 123.609 74.2558 L 123.609,51 L 122.679,51.9163 L 122.679,75.1722 L 123.609,74.2558z"/>
      <path style="fill: none; stroke-opacity: 1; stroke-width: 0.01; stroke: #494936" d="M 123.609 74.2558 L 123.609,51 L 122.679,51.9163 L 122.679,75.1722 L 123.609,74.2558"/>
      <path style="fill: #ffffff; fill-opacity: 1; stroke: none" fill-rule="evenodd" d="M 90.364 73.6935 L 121.013,73.6935 L 121.013,53.7838 L 90.364,53.7838 L 90.364,73.6935z"/>
      <path style="fill: none; stroke-opacity: 1; stroke-width: 0.01; stroke: #494936" d="M 90.364 73.6935 L 121.013,73.6935 L 121.013,53.7838 L 90.364,53.7838 L 90.364,73.6935"/>
      <path style="fill: #93936c; fill-opacity: 1; stroke: none" fill-rule="evenodd" d="M 90.364 76.2968 L 118.958,76.2968 L 111.53,83.7456 L 82.936,83.7456 L 90.364,76.2968z"/>
      <path style="fill: none; stroke-opacity: 1; stroke-width: 0.01; stroke: #494936" d="M 90.364 76.2968 L 118.958,76.2968 L 111.53,83.7456 L 82.936,83.7456 L 90.364,76.2968"/>
      <path style="fill: #7a7a5a; fill-opacity: 1; stroke: none" fill-rule="evenodd" d="M 94.8139 86.6196 L 94.8139,86.5779 L 94.8069,86.5363 L 94.8,86.4946 L 94.7792,86.446 L 94.7722,86.4044 L 94.7444,86.3697 L 94.7306,86.328 L 94.6958,86.3002 L 94.6611,86.2586 L 94.6403,86.2169 L 94.6056,86.1822 L 94.564,86.1475 L 94.5223,86.1059 L 94.4737,86.0712 L 94.4321,86.0503 L 94.3835,86.0156 L 94.3279,85.9879 L 94.2654,85.967 L 94.2168,85.9323 L 94.1544,85.9184 L 94.0919,85.8907 L 94.0364,85.8768 L 93.9669,85.856 L 93.9045,85.8421 L 93.8281,85.8282 L 93.7656,85.8074 L 93.6962,85.8004 L 93.6337,85.8004 L 93.5643,85.7935 L 93.481,85.7935 L 93.4255,85.7935 L 93.4255,85.7935 L 93.3491,85.7935 L 93.2727,85.7935 L 93.2103,85.8004 L 93.1408,85.8004 L 93.0784,85.8074 L 93.002,85.8282 L 92.9395,85.8421 L 92.8701,85.856 L 92.8076,85.8768 L 92.7451,85.8907 L 92.6896,85.9184 L 92.6202,85.9323 L 92.5716,85.967 L 92.5161,85.9879 L 92.4605,86.0156 L 92.4119,86.0503 L 92.3703,86.0712 L 92.3217,86.1059 L 92.28,86.1475 L 92.2453,86.1822 L 92.1967,86.2169 L 92.1759,86.2586 L 92.1342,86.3002 L 92.1134,86.328 L 92.0926,86.3697 L 92.0718,86.4044 L 92.0579,86.446 L 92.0509,86.4946 L 92.0371,86.5363 L 92.0232,86.5779 L 92.0232,86.6196 L 92.0232,86.6196 L 92.0232,86.6682 L 92.0371,86.7098 L 92.0509,86.7515 L 92.0579,86.7931 L 92.0718,86.8348 L 92.0926,86.8695 L 92.1134,86.9181 L 92.1342,86.9528 L 92.1759,86.9944 L 92.1967,87.0222 L 92.2453,87.0639 L 92.28,87.0986 L 92.3217,87.1402 L 92.3703,87.168 L 92.4119,87.1958 L 92.4605,87.2305 L 92.5161,87.2582 L 92.5716,87.2791 L 92.6202,87.3138 L 92.6896,87.3277 L 92.7451,87.3554 L 92.8076,87.3693 L 92.8701,87.3901 L 92.9395,87.404 L 93.002,87.4179 L 93.0784,87.4318 L 93.1408,87.4457 L 93.2103,87.4457 L 93.2727,87.4457 L 93.3491,87.4526 L 93.4255,87.4526 L 93.4255,87.4526 L 93.481,87.4526 L 93.5643,87.4457 L 93.6337,87.4457 L 93.6962,87.4457 L 93.7656,87.4318 L 93.8281,87.4179 L 93.9045,87.404 L 93.9669,87.3901 L 94.0364,87.3693 L 94.0919,87.3554 L 94.1544,87.3277 L 94.2168,87.3138 L 94.2654,87.2791 L 94.3279,87.2582 L 94.3835,87.2305 L 94.4321,87.1958 L 94.4737,87.168 L 94.5223,87.1402 L 94.564,87.0986 L 94.6056,87.0639 L 94.6403,87.0222 L 94.6611,86.9944 L 94.6958,86.9528 L 94.7306,86.9181 L 94.7444,86.8695 L 94.7722,86.8348 L 94.7792,86.7931 L 94.8,86.7515 L 94.8069,86.7098 L 94.8139,86.6682 L 94.8139,86.6196z"/>
      <path style="fill: none; stroke-opacity: 1; stroke-width: 0.01; stroke: #dbdbce" d="M 94.6334 86.5363 L 94.6334,86.4946 L 94.6264,86.453 L 94.6264,86.4183 L 94.6056,86.3905 L 94.5917,86.335 L 94.5848,86.3141 L 94.5501,86.2725 L 94.5223,86.2308 L 94.5015,86.2031 L 94.4737,86.1753 L 94.4321,86.1475 L 94.3973,86.0989 L 94.3557,86.0712 L 94.314,86.0503 L 94.2793,86.0156 L 94.2238,85.9879 L 94.1821,85.974 L 94.1335,85.9393 L 94.085,85.9254 L 94.0225,85.8976 L 93.9669,85.8837 L 93.9045,85.8698 L 93.8489,85.849 L 93.7864,85.8351 L 93.724,85.8282 L 93.6545,85.8074 L 93.599,85.8004 L 93.5226,85.7935 L 93.4671,85.7935 L 93.3977,85.7935 L 93.3352,85.7935 L 93.3352,85.7935 L 93.2658,85.7935 L 93.2033,85.7935 L 93.1339,85.7935 L 93.0784,85.8004 L 93.0089,85.8074 L 92.9534,85.8282 L 92.877,85.8351 L 92.8215,85.849 L 92.7729,85.8698 L 92.7035,85.8837 L 92.6479,85.8976 L 92.5785,85.9254 L 92.5438,85.9393 L 92.4813,85.974 L 92.4397,85.9879 L 92.3911,86.0156 L 92.3494,86.0503 L 92.3078,86.0712 L 92.2661,86.0989 L 92.2314,86.1475 L 92.1967,86.1753 L 92.1689,86.2031 L 92.1342,86.2308 L 92.1204,86.2725 L 92.0926,86.3141 L 92.0787,86.335 L 92.0648,86.3905 L 92.0509,86.4183 L 92.044,86.453 L 92.0371,86.4946 L 92.0371,86.5363 L 92.0371,86.5363 L 92.0371,86.571 L 92.044,86.6126 L 92.0509,86.6543 L 92.0648,86.6751 L 92.0787,86.7168 L 92.0926,86.7584 L 92.1204,86.7931 L 92.1342,86.8278 L 92.1689,86.8695 L 92.1967,86.8903 L 92.2314,86.925 L 92.2661,86.9597 L 92.3078,86.9944 L 92.3494,87.0153 L 92.3911,87.05 L 92.4397,87.0708 L 92.4813,87.0986 L 92.5438,87.1263 L 92.5785,87.1402 L 92.6479,87.168 L 92.7035,87.1888 L 92.7729,87.1958 L 92.8215,87.2166 L 92.877,87.2305 L 92.9534,87.2374 L 93.0089,87.2582 L 93.0784,87.2721 L 93.1339,87.2721 L 93.2033,87.2721 L 93.2658,87.2721 L 93.3352,87.2721 L 93.3352,87.2721 L 93.3977,87.2721 L 93.4671,87.2721 L 93.5226,87.2721 L 93.599,87.2721 L 93.6545,87.2582 L 93.724,87.2374 L 93.7864,87.2305 L 93.8489,87.2166 L 93.9045,87.1958 L 93.9669,87.1888 L 94.0225,87.168 L 94.085,87.1402 L 94.1335,87.1263 L 94.1821,87.0986 L 94.2238,87.0708 L 94.2793,87.05 L 94.314,87.0153 L 94.3557,86.9944 L 94.3973,86.9597 L 94.4321,86.925 L 94.4737,86.8903 L 94.5015,86.8695 L 94.5223,86.8278 L 94.5501,86.7931 L 94.5848,86.7584 L 94.5917,86.7168 L 94.6056,86.6751 L 94.6264,86.6543 L 94.6264,86.6126 L 94.6334,86.571 L 94.6334,86.5363"/>
      <path style="fill: none; stroke-opacity: 1; stroke-width: 0.01; stroke: #626248" d="M 90.1835 87.2721 L 90.1835,87.3554 L 90.1974,87.4179 L 90.2252,87.4943 L 90.246,87.5776 L 90.2877,87.647 L 90.3293,87.7095 L 90.3918,87.7858 L 90.4543,87.8622 L 90.5237,87.9247 L 90.5931,87.9941 L 90.6834,88.0566 L 90.7667,88.126 L 90.8777,88.1815 L 90.9819,88.2371 L 91.0929,88.2857 L 91.2109,88.3481 L 91.3428,88.3967 L 91.4609,88.4453 L 91.6136,88.487 L 91.7524,88.5286 L 91.8982,88.5772 L 92.044,88.6119 L 92.1967,88.6328 L 92.3494,88.6605 L 92.5161,88.6883 L 92.6757,88.7022 L 92.8354,88.73 L 93.002,88.7438 L 93.1755,88.7508 L 93.3422,88.7508 L 93.5088,88.7508"/>
      <path style="fill: none; stroke-opacity: 1; stroke-width: 0.01; stroke: #626248" d="M 93.1339 88.7508 L 93.3074,88.7508 L 93.4671,88.7508 L 93.6407,88.7369 L 93.7934,88.7161 L 93.9531,88.7022 L 94.1197,88.6883 L 94.2654,88.6605 L 94.4251,88.6258 L 94.564,88.5911 L 94.7167,88.5633 L 94.8625,88.5217 L 94.9944,88.48 L 95.1263,88.4314 L 95.2512,88.369 L 95.3762,88.3204 L 95.4803,88.2648 L 95.5914,88.2093 L 95.6886,88.1399 L 95.7788,88.0843 L 95.8691,88.008 L 95.9454,87.9524 L 96.0218,87.883 L 96.0843,87.7997 L 96.1259,87.7234 L 96.1884,87.6609 L 96.2162,87.5776 L 96.2509,87.5012 L 96.2786,87.4179 L 96.2786,87.3554 L 96.2925,87.2721"/>
      <path style="fill: none; stroke-opacity: 1; stroke-width: 0.01; stroke: #626248" d="M 93.8767 84.4884 L 93.717,84.4884 L 93.5504,84.4953 L 93.3838,84.4953 L 93.2172,84.5092 L 93.0436,84.53 L 92.877,84.537 L 92.7313,84.5647 L 92.5646,84.5856 L 92.4119,84.6272 L 92.2661,84.6411 L 92.1204,84.6827 L 91.9815,84.7105 L 91.8427,84.7591 L 91.7177,84.8008 L 91.5928,84.8424 L 91.4609,84.8841 L 91.3567,84.9327 L 91.2457,84.9813 L 91.1485,85.0437 L 91.0582,85.0993 L 90.9749,85.1479 L 90.8916,85.2173 L 90.8083,85.2659 L 90.7597,85.3214 L 90.7042,85.3978 L 90.6556,85.4533 L 90.6139,85.5227 L 90.5862,85.5783 L 90.5653,85.6407 L 90.5584,85.7171 L 90.5515,85.7865"/>
      <path style="fill: none; stroke-opacity: 1; stroke-width: 0.01; stroke: #626248" d="M 96.6674 85.7865 L 96.6535,85.7102 L 96.6466,85.6407 L 96.6327,85.5783 L 96.598,85.5089 L 96.5563,85.4464 L 96.5077,85.377 L 96.4522,85.3214 L 96.3897,85.2589 L 96.3203,85.1895 L 96.237,85.134 L 96.1537,85.0715 L 96.0634,85.016 L 95.9524,84.9674 L 95.8552,84.9188 L 95.7372,84.8702 L 95.6261,84.8146 L 95.5011,84.773 L 95.3692,84.7383 L 95.2234,84.6966 L 95.0846,84.6689 L 94.9458,84.6272 L 94.8,84.5994 L 94.6473,84.5717 L 94.4806,84.5439 L 94.3349,84.53 L 94.1752,84.5092 L 94.0086,84.4953 L 93.835,84.4953 L 93.6823,84.4884 L 93.5088,84.4884"/>
      <path style="fill: #7a7a5a; fill-opacity: 1; stroke: none" fill-rule="evenodd" d="M 122.679 76.4773 L 108.386,90.8195 L 108.386,89.5144 L 122.679,75.1722 L 122.679,76.4773z"/>
      <path style="fill: none; stroke-opacity: 1; stroke-width: 0.01; stroke: #494936" d="M 122.679 76.4773 L 108.386,90.8195 L 108.386,89.5144 L 122.679,75.1722 L 122.679,76.4773"/>
      <path style="fill: #7a7a5a; fill-opacity: 1; stroke: none" fill-rule="evenodd" d="M 117.854 74.0753 L 117.854,74.4294 L 120.638,74.4294 L 120.638,74.0753 L 117.854,74.0753z"/>
      <path style="fill: none; stroke-opacity: 1; stroke-width: 0.01; stroke: #494936" d="M 117.854 74.0753 L 117.854,74.4294 L 120.638,74.4294 L 120.638,74.0753 L 117.854,74.0753"/>
      <path style="fill: none; stroke-opacity: 1; stroke-width: 0.01; stroke: #000000" d="M 117.091 78.1572 L 88.684,78.1572"/>
      <path style="fill: none; stroke-opacity: 1; stroke-width: 0.01; stroke: #000000" d="M 115.244 80.0246 L 86.8375,80.0246"/>
      <path style="fill: none; stroke-opacity: 1; stroke-width: 0.01; stroke: #000000" d="M 113.391 81.8851 L 84.977,81.8851"/>
      <path style="fill: #c9c9b6; fill-opacity: 1; stroke: none" fill-rule="evenodd" d="M 89.6143 51 L 123.609,51 L 122.679,51.9163 L 88.684,51.9163 L 89.6143,51z"/>
      <path style="fill: none; stroke-opacity: 1; stroke-width: 0.01; stroke: #494936" d="M 89.6143 51 L 123.609,51 L 122.679,51.9163 L 88.684,51.9163 L 89.6143,51"/>
    </g>
    <g>
      <path style="fill: #0096d4; fill-opacity: 1; stroke: none" fill-rule="evenodd" d="M 326.597 153.723 C 318.922,155.215 313.379,173.549 313.379,173.549 C 310.607,181.65 305.704,188.046 305.704,188.046 L 356.656,188.046 C 356.656,188.046 362.625,180.798 366.889,173.549 C 366.889,173.549 372.432,155.215 380.107,153.723 L 326.597,153.723z"/>
      <path style="fill: none; stroke-opacity: 1; stroke-width: 0.4; stroke: #ffffff" d="M 326.597 153.723 C 318.922,155.215 313.379,173.549 313.379,173.549 C 310.607,181.65 305.704,188.046 305.704,188.046 L 356.656,188.046 C 356.656,188.046 362.625,180.798 366.889,173.549 C 366.889,173.549 372.432,155.215 380.107,153.723 L 326.597,153.723"/>
      <path style="fill: #005a80; fill-opacity: 1; stroke: none" fill-rule="evenodd" d="M 356.656 188.046 L 356.656,196.574 L 379.041,173.336 L 379.041,153.936 C 375.417,154.789 370.3,160.971 366.25,166.727 C 363.905,169.925 362.412,172.91 360.707,175.041 L 356.656,188.046z"/>
      <path style="fill: none; stroke-opacity: 1; stroke-width: 0.4; stroke: #ffffff" d="M 356.656 188.046 L 356.656,196.574 L 379.041,173.336 L 379.041,153.936 C 375.417,154.789 370.3,160.971 366.25,166.727 C 363.905,169.925 362.412,172.91 360.707,175.041 L 356.656,188.046"/>
      <path style="fill: none; stroke-opacity: 1; stroke-width: 0.4; stroke: #036796" d="M 340.88 143.063 C 344.718,139.652 349.834,137.307 354.737,137.52 C 359.854,137.52 363.478,140.292 364.331,144.129"/>
      <path style="fill: none; stroke-opacity: 1; stroke-width: 0.4; stroke: #036796" d="M 338.961 148.18 C 342.799,144.769 347.915,142.637 352.819,142.85 C 357.935,142.85 361.346,145.621 362.412,149.459"/>
      <path style="fill: none; stroke-opacity: 1; stroke-width: 0.4; stroke: #036796" d="M 337.043 153.509 C 340.88,150.098 345.997,147.966 350.9,147.966 C 356.017,148.18 359.428,150.738 360.494,154.575"/>
      <path style="fill: #0096d4; fill-opacity: 1; stroke: none" fill-rule="evenodd" d="M 334.911 158.839 C 338.748,155.428 343.865,153.083 348.768,153.296 C 353.885,153.296 357.509,156.068 358.362,159.905 L 334.911,158.839z"/>
      <path style="fill: none; stroke-opacity: 1; stroke-width: 0.4; stroke: #ffffff" d="M 334.911 158.839 C 338.748,155.428 343.865,153.083 348.768,153.296 C 353.885,153.296 357.509,156.068 358.362,159.905"/>
      <path style="fill: none; stroke-opacity: 1; stroke-width: 0.4; stroke: #036796" d="M 340.88 143.063 C 344.718,139.652 349.834,137.307 354.737,137.52 C 359.854,137.52 363.478,140.292 364.331,144.129"/>
      <path style="fill: none; stroke-opacity: 1; stroke-width: 0.4; stroke: #036796" d="M 343.012 137.947 C 346.636,134.322 351.753,132.404 356.656,132.617 C 361.773,132.617 365.397,135.175 366.25,139.013"/>
      <path style="fill: none; stroke-opacity: 1; stroke-width: 0.4; stroke: #036796" d="M 338.961 148.18 C 342.799,144.769 347.915,142.637 352.819,142.85 C 357.935,142.85 361.346,145.621 362.412,149.459"/>
      <path style="fill: none; stroke-opacity: 1; stroke-width: 0.4; stroke: #036796" d="M 337.043 153.509 C 340.88,150.098 345.997,147.966 350.9,147.966 C 356.017,148.18 359.428,150.738 360.494,154.575"/>
      <path style="fill: none; stroke-opacity: 1; stroke-width: 0.4; stroke: #ffffff" d="M 334.911 158.839 C 338.748,155.428 343.865,153.083 348.768,153.296 C 353.885,153.296 357.509,156.068 358.362,159.905"/>
      <path style="fill: #036796; fill-opacity: 1; stroke: none" fill-rule="evenodd" d="M 362.625 170.138 C 363.052,176.107 352.819,181.864 339.601,183.143 C 326.597,184.209 315.511,180.158 315.084,174.189 C 314.445,168.006 324.678,162.25 337.896,161.184 C 351.113,160.118 361.986,164.169 362.625,170.138z"/>
      <path style="fill: none; stroke-opacity: 1; stroke-width: 0.4; stroke: #ffffff" d="M 362.625 170.138 C 363.052,176.107 352.819,181.864 339.601,183.143 C 326.597,184.209 315.511,180.158 315.084,174.189 C 314.445,168.006 324.678,162.25 337.896,161.184 C 351.113,160.118 361.986,164.169 362.625,170.138"/>
      <path style="fill: #00b4ff; fill-opacity: 1; stroke: none" fill-rule="evenodd" d="M 360.28 168.646 C 360.92,174.189 351.54,179.518 339.601,180.371 C 327.662,181.437 317.643,177.813 317.216,172.27 C 316.577,166.727 325.957,161.611 337.896,160.545 C 349.834,159.479 359.854,163.103 360.28,168.646z"/>
      <path style="fill: none; stroke-opacity: 1; stroke-width: 0.4; stroke: #ffffff" d="M 360.28 168.646 C 360.92,174.189 351.54,179.518 339.601,180.371 C 327.662,181.437 317.643,177.813 317.216,172.27 C 316.577,166.727 325.957,161.611 337.896,160.545 C 349.834,159.479 359.854,163.103 360.28,168.646"/>
      <path style="fill: #0096d4; fill-opacity: 1; stroke: none" fill-rule="evenodd" d="M 305.704 197 L 356.656,196.787 L 356.656,187.62 L 305.704,187.62 L 305.704,197z"/>
      <path style="fill: none; stroke-opacity: 1; stroke-width: 0.4; stroke: #ffffff" d="M 305.704 197 L 356.656,196.787 L 356.656,187.62 L 305.704,187.62 L 305.704,197"/>
    </g>
    <g>
      <line style="fill: none; stroke-opacity: 1; stroke-width: 1; stroke: #000000" x1="131.837" y1="80.9614" x2="312.157" y2="152.593"/>
      <polygon style="fill: #000000; fill-opacity: 1; stroke-opacity: 1; stroke-width: 1; stroke: #000000" fill-rule="evenodd" points="133.683,76.3146 122.544,77.2695 129.991,85.6082 "/>
      <polygon style="fill: #000000; fill-opacity: 1; stroke-opacity: 1; stroke-width: 1; stroke: #000000" fill-rule="evenodd" points="310.311,157.24 321.45,156.285 314.003,147.947 "/>
    </g>
    <g>
      <line style="fill: none; stroke-opacity: 1; stroke-width: 1; stroke: #000000" x1="183.308" y1="272.103" x2="296.793" y2="195.809"/>
      <polygon style="fill: #000000; fill-opacity: 1; stroke-opacity: 1; stroke-width: 1; stroke: #000000" fill-rule="evenodd" points="180.519,267.954 175.009,277.683 186.098,276.253 "/>
      <polygon style="fill: #000000; fill-opacity: 1; stroke-opacity: 1; stroke-width: 1; stroke: #000000" fill-rule="evenodd" points="299.583,199.959 305.092,190.23 294.003,191.66 "/>
    </g>
    <g>
      <line style="fill: none; stroke-opacity: 1; stroke-width: 1; stroke: #000000" x1="422.51" y1="276.124" x2="368.019" y2="199.926"/>
      <polygon style="fill: #000000; fill-opacity: 1; stroke-opacity: 1; stroke-width: 1; stroke: #000000" fill-rule="evenodd" points="418.443,279.032 428.327,284.258 426.577,273.215 "/>
      <polygon style="fill: #000000; fill-opacity: 1; stroke-opacity: 1; stroke-width: 1; stroke: #000000" fill-rule="evenodd" points="372.086,197.018 362.202,191.792 363.952,202.834 "/>
    </g>
  </g>
</svg>
